<svg xmlns="http://www.w3.org/2000/svg" xmlns:xlink="http://www.w3.org/1999/xlink" width="46" height="46" viewBox="0 0 46 46">
  <defs>
    <style>
      .cls-1 {
        clip-path: url(#clip-Launch_Gin);
      }

      .cls-2 {
        fill: url(#linear-gradient);
      }
    </style>
    <linearGradient id="linear-gradient" x1="0.056" x2="1.352" y2="1.609" gradientUnits="objectBoundingBox">
      <stop offset="0" stop-color="#62cecd"/>
      <stop offset="0.276" stop-color="#4f9fe7"/>
      <stop offset="0.631" stop-color="#3a6cf6"/>
      <stop offset="1" stop-color="#210eb2"/>
    </linearGradient>
    <clipPath id="clip-Launch_Gin">
      <rect width="46" height="46"/>
    </clipPath>
  </defs>
  <g id="Launch_Gin" data-name="Launch Gin" class="cls-1">
    <g id="Group_11369" data-name="Group 11369" transform="translate(-771.145 -325.19)">
      <path id="Path_1494" data-name="Path 1494" class="cls-2" d="M809.89,331.19H778.46a1.314,1.314,0,0,0-1.31,1.43l2.69,30.61a2.24,2.24,0,0,0,2.23,2.04h23.65a2.242,2.242,0,0,0,2.23-2l3.25-30.62A1.322,1.322,0,0,0,809.89,331.19Zm-3.22,24.77a3.382,3.382,0,0,1-3.36,3.04H784.68a3.372,3.372,0,0,1-3.36-3.02l-2.43-22.79h30.09Z"/>
      <path id="Path_1495" data-name="Path 1495" class="cls-2" d="M805.972,349.188"/>
      <path id="Path_1496" data-name="Path 1496" class="cls-2" d="M803.49,349.19l.09-.19a.6.6,0,0,0-.29-.79l-5.54-2.49a.6.6,0,0,0-.79.3l-1.44,3.17h-3.05l-.07-2.25a.611.611,0,0,0-.63-.61l-6.26.11a.617.617,0,0,0-.61.63l.03,2.12h-2.58v4.4a4.136,4.136,0,0,0,4.14,4.14h14.89a4.144,4.144,0,0,0,4.15-4.14v-4.4Zm-12.47,3.73-4.53.09a.573.573,0,0,1-.57-.55l-.08-4.53a.559.559,0,0,1,.55-.57l4.53-.08a.551.551,0,0,1,.57.54l.08,4.54A.557.557,0,0,1,791.02,352.92Zm4.74-1.8,1.73-3.83a.525.525,0,0,1,.69-.27l3.83,1.73a.528.528,0,0,1,.27.69l-1.73,3.84a.512.512,0,0,1-.68.26l-3.84-1.72A.534.534,0,0,1,795.76,351.12Z"/>
    </g>
  </g>
</svg>
