<svg xmlns="http://www.w3.org/2000/svg" xmlns:xlink="http://www.w3.org/1999/xlink" width="46" height="46" viewBox="0 0 46 46">
  <defs>
    <style>
      .cls-1 {
        clip-path: url(#clip-Provide-resources);
      }

      .cls-2 {
        fill: url(#linear-gradient);
      }
    </style>
    <linearGradient id="linear-gradient" y1="0.601" x2="1.826" y2="3.254" gradientUnits="objectBoundingBox">
      <stop offset="0" stop-color="#62cecd"/>
      <stop offset="0.241" stop-color="#4f9fe7"/>
      <stop offset="0.626" stop-color="#3a6cf6"/>
      <stop offset="1" stop-color="#210eb2"/>
    </linearGradient>
    <clipPath id="clip-Provide-resources">
      <rect width="46" height="46"/>
    </clipPath>
  </defs>
  <g id="Provide-resources" class="cls-1">
    <g id="Group_11368" data-name="Group 11368" transform="translate(-563.467 -245.49)">
      <path id="Path_1488" data-name="Path 1488" class="cls-2" d="M573.922,247.863v18.044a1.373,1.373,0,0,0,1.373,1.373h26.474a1.373,1.373,0,0,0,1.373-1.373V247.863a1.373,1.373,0,0,0-1.373-1.373H575.295A1.373,1.373,0,0,0,573.922,247.863Zm18.37,5.667h-7.53a1.49,1.49,0,1,1,0-2.98h7.53a1.49,1.49,0,0,1,0,2.98Z"/>
      <path id="Path_1489" data-name="Path 1489" class="cls-2" d="M607.692,277.031,590.2,288.885a5.7,5.7,0,0,1-5.85.324l-8.641-4.552a2.083,2.083,0,0,0-2.012.039l-2.434,1.406a1.061,1.061,0,0,1-1.5-.487l-4.166-9.362a1.492,1.492,0,0,1,.765-1.977c1.5-.654,3.717-1.626,3.94-1.725,1.13-.49,2.26-.97,3.39-1.47a6.5,6.5,0,0,1,1.02-.35,9.236,9.236,0,0,1,3.63,0c2.62.38,3.98,2.05,6.06,3.45,1.75,1.18,5.77,1.59,7.1,1.69.03,0,.06.01.08.01a1.9,1.9,0,0,1,.36.09,2.093,2.093,0,0,1,1.45,1.991,2.61,2.61,0,0,1-1.567,2.233,5.081,5.081,0,0,1-1.4.155c-.846.01-1.692.017-2.537-.031-2.029-.113-4.053-.3-6.072-.535-.28-.033-1.183.019-1.409-.173,1.276,1.081,3.184,1.127,4.769,1.2a77.715,77.715,0,0,0,7.828-.03,4.467,4.467,0,0,0,2.192-1.023l2.417-1.572q2.622-1.7,5.245-3.4a12.785,12.785,0,0,1,1.618-1.035,2.318,2.318,0,0,1,2.262-.506,2.3,2.3,0,0,1,.958,3.786Z"/>
      <path id="Path_1490" data-name="Path 1490" class="cls-2" d="M593.244,276.045l2.488-1.708,1.973-1.354a4.6,4.6,0,0,1,2.066-1.135,7.673,7.673,0,0,1,1.6,0,2.374,2.374,0,0,1,1.4.448c.278.277.411,1.013.01,1.284l-8.87,6S594.833,276.917,593.244,276.045Z"/>
      <path id="Path_1491" data-name="Path 1491" class="cls-2" d="M589.019,274.951l3.653.485a.263.263,0,0,0,.181-.043l5.3-3.611a.259.259,0,0,0-.019-.443,5.123,5.123,0,0,0-1.817-.521,5.394,5.394,0,0,0-2.093.081,7.429,7.429,0,0,0-1.876,1.117,31.082,31.082,0,0,0-3.466,2.482A.26.26,0,0,0,589.019,274.951Z"/>
    </g>
  </g>
</svg>
