<svg xmlns="http://www.w3.org/2000/svg" xmlns:xlink="http://www.w3.org/1999/xlink" width="1455.22" height="636.77" viewBox="0 0 1455.22 636.77">
  <defs>
    <clipPath id="clip-Homepage">
      <rect width="1455.22" height="636.77"/>
    </clipPath>
  </defs>
  <g id="Homepage" clip-path="url(#clip-Homepage)">
    <g id="Group_11361" data-name="Group 11361" transform="translate(88.465 -27.455)">
      <g id="Group_10615" data-name="Group 10615" transform="translate(81.236 27.455)" style="mix-blend-mode: color-dodge;isolation: isolate">
        <g id="Group_10612" data-name="Group 10612" transform="translate(3.315 3.245)">
          <path id="Path_213" data-name="Path 213" d="M451.657,187.667h-154l-64.922-63.539H118.276L28.5,36.262l.716-.7L118.7,123.136H233.159l64.922,63.54H451.657Z" transform="translate(-28.496 -35.561)" fill="#dedede"/>
        </g>
        <g id="Group_10613" data-name="Group 10613" transform="translate(422.476 151.128)">
          <path id="Path_214" data-name="Path 214" d="M172.132,85.969a3.728,3.728,0,1,1-3.807,3.726A3.769,3.769,0,0,1,172.132,85.969Z" transform="translate(-168.325 -85.969)" fill="#dedede"/>
        </g>
        <g id="Group_10614" data-name="Group 10614">
          <path id="Path_215" data-name="Path 215" d="M33.892,35.546a3.869,3.869,0,0,0-5.387,0,3.673,3.673,0,0,0,0,5.272,3.869,3.869,0,0,0,5.387,0A3.673,3.673,0,0,0,33.892,35.546Z" transform="translate(-27.39 -34.455)" fill="#dedede"/>
        </g>
      </g>
      <g id="Group_10619" data-name="Group 10619" transform="translate(-75.691 480.419)" style="mix-blend-mode: color-dodge;isolation: isolate">
        <g id="Group_10616" data-name="Group 10616" transform="translate(3.619 3.245)">
          <path id="Path_216" data-name="Path 216" d="M80.233,367.288H-23.752V366.3H79.813L137.1,310.23H251.566l64.922-63.539h157.4l57.968-56.731.716.7L474.31,247.683h-157.4l-64.922,63.539H137.522Z" transform="translate(23.752 -189.96)" fill="#dedede"/>
        </g>
        <g id="Group_10617" data-name="Group 10617" transform="translate(555.642)">
          <path id="Path_217" data-name="Path 217" d="M161.514,189.945a3.869,3.869,0,0,1,5.387,0,3.668,3.668,0,0,1,0,5.272,3.869,3.869,0,0,1-5.387,0A3.673,3.673,0,0,1,161.514,189.945Z" transform="translate(-160.399 -188.854)" fill="#dedede"/>
        </g>
        <g id="Group_10618" data-name="Group 10618" transform="translate(0 176.349)">
          <ellipse id="Ellipse_8" data-name="Ellipse 8" cx="3.809" cy="3.728" rx="3.809" ry="3.728" fill="#dedede"/>
        </g>
      </g>
      <g id="Group_10623" data-name="Group 10623" transform="translate(-56.276 152.111)" style="mix-blend-mode: color-dodge;isolation: isolate">
        <g id="Group_10620" data-name="Group 10620" transform="translate(3.619)">
          <path id="Path_218" data-name="Path 218" d="M590.241,182.025,537.8,130.7H357.535L303.62,77.937H231.192l-29.014,28.4H-17.275v-.992H201.758l29.015-28.4H304.04l53.915,52.765H538.22l52.737,51.614Z" transform="translate(17.275 -76.946)" fill="#dedede"/>
        </g>
        <g id="Group_10621" data-name="Group 10621" transform="translate(607.551 100.869)">
          <ellipse id="Ellipse_9" data-name="Ellipse 9" cx="3.809" cy="3.728" rx="3.809" ry="3.728" fill="#dedede"/>
        </g>
        <g id="Group_10622" data-name="Group 10622" transform="translate(0 25.163)">
          <ellipse id="Ellipse_10" data-name="Ellipse 10" cx="3.809" cy="3.728" rx="3.809" ry="3.728" fill="#dedede"/>
        </g>
      </g>
      <g id="Group_10627" data-name="Group 10627" transform="translate(37.902 436.325)" style="mix-blend-mode: color-dodge;isolation: isolate">
        <g id="Group_10624" data-name="Group 10624" transform="translate(3.619 3.232)">
          <path id="Path_219" data-name="Path 219" d="M384.021,263.02H323.1l-45.067-44.105H189.754l-43.933-43H14.142v-.992h132.1l43.933,43h88.28l45.067,44.105H383.6l61.908-60.587.716.7Z" transform="translate(-14.142 -174.926)" fill="#dedede"/>
        </g>
        <g id="Group_10625" data-name="Group 10625" transform="translate(431.402 26.501)">
          <path id="Path_220" data-name="Path 220" d="M157.962,183.951a3.864,3.864,0,0,1,5.387,0,3.673,3.673,0,0,1,0,5.272,3.869,3.869,0,0,1-5.387,0A3.673,3.673,0,0,1,157.962,183.951Z" transform="translate(-156.847 -182.857)" fill="#dedede"/>
        </g>
        <g id="Group_10626" data-name="Group 10626">
          <ellipse id="Ellipse_11" data-name="Ellipse 11" cx="3.809" cy="3.728" rx="3.809" ry="3.728" fill="#dedede"/>
        </g>
      </g>
      <g id="Group_10631" data-name="Group 10631" transform="translate(4.636 174.021)" style="mix-blend-mode: color-dodge;isolation: isolate">
        <g id="Group_10628" data-name="Group 10628" transform="translate(3.618)">
          <path id="Path_221" data-name="Path 221" d="M543.066,191.708l-51.208-50.114H320.237L262.823,85.406H210.357l-42.081,41.186H3.044V125.6H167.856l42.081-41.186h53.306L320.656,140.6H492.278l51.5,50.405Z" transform="translate(-3.044 -84.414)" fill="#dedede"/>
        </g>
        <g id="Group_10629" data-name="Group 10629" transform="translate(0 37.953)">
          <path id="Path_222" data-name="Path 222" d="M5.647,104.806a3.728,3.728,0,1,1,0-7.455,3.728,3.728,0,1,1,0,7.455Z" transform="translate(-1.837 -97.351)" fill="#dedede"/>
        </g>
        <g id="Group_10630" data-name="Group 10630" transform="translate(540.054 103.085)">
          <path id="Path_223" data-name="Path 223" d="M183.113,125.915a3.869,3.869,0,0,0,5.387,0,3.673,3.673,0,0,0,0-5.272,3.869,3.869,0,0,0-5.387,0A3.668,3.668,0,0,0,183.113,125.915Z" transform="translate(-181.995 -119.552)" fill="#dedede"/>
        </g>
      </g>
      <g id="Group_10635" data-name="Group 10635" transform="translate(17.433 392.956)" style="mix-blend-mode: color-dodge;isolation: isolate">
        <g id="Group_10632" data-name="Group 10632" transform="translate(3.317)">
          <path id="Path_224" data-name="Path 224" d="M390.113,244.6H315.542l-86.406-84.563H50.915L7.929,202.1l-.716-.7,43.282-42.359h179.06L315.962,243.6h73.731l42.392-41.487H508.52v.992H432.5Z" transform="translate(-7.213 -159.041)" fill="#dedede"/>
        </g>
        <g id="Group_10633" data-name="Group 10633" transform="translate(500.625 39.846)">
          <path id="Path_225" data-name="Path 225" d="M176.918,172.623a3.728,3.728,0,1,1-3.807,3.726A3.769,3.769,0,0,1,176.918,172.623Z" transform="translate(-173.111 -172.623)" fill="#dedede"/>
        </g>
        <g id="Group_10634" data-name="Group 10634" transform="translate(0 38.849)">
          <path id="Path_226" data-name="Path 226" d="M7.221,173.377a3.673,3.673,0,0,0,0,5.272,3.869,3.869,0,0,0,5.387,0,3.673,3.673,0,0,0,0-5.272A3.864,3.864,0,0,0,7.221,173.377Z" transform="translate(-6.106 -172.283)" fill="#dedede"/>
        </g>
      </g>
      <g id="Group_10639" data-name="Group 10639" transform="translate(375.456 445.91)" style="mix-blend-mode: color-dodge;isolation: isolate">
        <g id="Group_10636" data-name="Group 10636" transform="translate(3.619 3.246)">
          <path id="Path_227" data-name="Path 227" d="M167.787,224.873h-41.04v-.992h40.621l46.68-45.684.716.7Z" transform="translate(-126.747 -178.197)" fill="#dedede"/>
        </g>
        <g id="Group_10637" data-name="Group 10637" transform="translate(87.335)">
          <path id="Path_228" data-name="Path 228" d="M155.789,178.182a3.869,3.869,0,0,1,5.387,0,3.673,3.673,0,0,1,0,5.272,3.864,3.864,0,0,1-5.387,0A3.673,3.673,0,0,1,155.789,178.182Z" transform="translate(-154.674 -177.091)" fill="#dedede"/>
        </g>
        <g id="Group_10638" data-name="Group 10638" transform="translate(0 45.698)">
          <ellipse id="Ellipse_12" data-name="Ellipse 12" cx="3.809" cy="3.728" rx="3.809" ry="3.728" fill="#dedede"/>
        </g>
      </g>
      <g id="Group_10643" data-name="Group 10643" transform="translate(-88.465 192.759)" style="mix-blend-mode: color-dodge;isolation: isolate">
        <g id="Group_10640" data-name="Group 10640" transform="translate(3.317 3.246)">
          <path id="Path_229" data-name="Path 229" d="M605.31,207.024,550.4,153.285H395.65l-51.857-50.752H257.784l-44.86,43.9H26.887l-55-53.829.716-.7,54.7,53.539h185.2l44.859-43.9h86.848l51.857,50.752H550.817l55.209,54.03Z" transform="translate(28.114 -91.907)" fill="#dedede"/>
        </g>
        <g id="Group_10641" data-name="Group 10641" transform="translate(633.155 114.151)">
          <path id="Path_230" data-name="Path 230" d="M188.5,130.8a3.676,3.676,0,0,1,0,5.275,3.869,3.869,0,0,1-5.387,0,3.671,3.671,0,0,1,0-5.275A3.869,3.869,0,0,1,188.5,130.8Z" transform="translate(-181.995 -129.711)" fill="#dedede"/>
        </g>
        <g id="Group_10642" data-name="Group 10642">
          <path id="Path_231" data-name="Path 231" d="M-22.716,91.892a3.873,3.873,0,0,0-5.39,0,3.673,3.673,0,0,0,0,5.272,3.867,3.867,0,0,0,5.39,0A3.673,3.673,0,0,0-22.716,91.892Z" transform="translate(29.221 -90.801)" fill="#dedede"/>
        </g>
      </g>
      <g id="Group_10647" data-name="Group 10647" transform="translate(131.825 223.965)" style="mix-blend-mode: color-dodge;isolation: isolate">
        <g id="Group_10644" data-name="Group 10644" transform="translate(3.317)">
          <path id="Path_232" data-name="Path 232" d="M435.459,199.068,390.834,155.4H252.14L198.019,102.43H114.274L46.089,169.161l-.716-.7,68.482-67.022h84.584l54.121,52.967H391.254l44.921,43.962Z" transform="translate(-45.373 -101.438)" fill="#dedede"/>
        </g>
        <g id="Group_10645" data-name="Group 10645" transform="translate(389.818 93.422)">
          <path id="Path_233" data-name="Path 233" d="M180.809,134.373a3.673,3.673,0,0,1,0,5.272,3.869,3.869,0,0,1-5.387,0,3.673,3.673,0,0,1,0-5.272A3.869,3.869,0,0,1,180.809,134.373Z" transform="translate(-174.307 -133.282)" fill="#dedede"/>
        </g>
        <g id="Group_10646" data-name="Group 10646" transform="translate(0 63.512)">
          <ellipse id="Ellipse_13" data-name="Ellipse 13" cx="3.809" cy="3.728" rx="3.809" ry="3.728" fill="#dedede"/>
        </g>
      </g>
      <g id="Group_10651" data-name="Group 10651" transform="translate(-42.766 352.066)" style="mix-blend-mode: color-dodge;isolation: isolate">
        <g id="Group_10648" data-name="Group 10648" transform="translate(3.619 3.231)">
          <path id="Path_234" data-name="Path 234" d="M400.808,244.043H348.872L249.916,147.2H-12.769V146.2h263.1l98.956,96.847h51.1L437.43,206.8H537.851l43.387-42.463.716.7L538.27,207.793H437.849Z" transform="translate(12.769 -146.204)" fill="#dedede"/>
        </g>
        <g id="Group_10649" data-name="Group 10649" transform="translate(594.041 18.119)">
          <path id="Path_235" data-name="Path 235" d="M185.307,152.373a3.864,3.864,0,0,1,5.387,0,3.668,3.668,0,0,1,0,5.272,3.869,3.869,0,0,1-5.387,0A3.673,3.673,0,0,1,185.307,152.373Z" transform="translate(-184.192 -151.279)" fill="#dedede"/>
        </g>
        <g id="Group_10650" data-name="Group 10650">
          <path id="Path_236" data-name="Path 236" d="M-10.166,145.1a3.77,3.77,0,0,0-3.81,3.729,3.769,3.769,0,0,0,3.81,3.726,3.769,3.769,0,0,0,3.81-3.726A3.77,3.77,0,0,0-10.166,145.1Z" transform="translate(13.976 -145.103)" fill="#dedede"/>
        </g>
      </g>
      <g id="Group_10655" data-name="Group 10655" transform="translate(286.146 301.491)" style="mix-blend-mode: color-dodge;isolation: isolate">
        <g id="Group_10652" data-name="Group 10652" transform="translate(3.62 3.233)">
          <path id="Path_237" data-name="Path 237" d="M132.232,161.374H96.954v-.992h34.858l32.1-31.417H283.976v.992H164.333Z" transform="translate(-96.954 -128.966)" fill="#dedede"/>
        </g>
        <g id="Group_10653" data-name="Group 10653" transform="translate(186.642)">
          <path id="Path_238" data-name="Path 238" d="M161.816,127.864a3.73,3.73,0,1,1-3.807,3.729A3.77,3.77,0,0,1,161.816,127.864Z" transform="translate(-158.009 -127.864)" fill="#dedede"/>
        </g>
        <g id="Group_10654" data-name="Group 10654" transform="translate(0 31.418)">
          <ellipse id="Ellipse_14" data-name="Ellipse 14" cx="3.809" cy="3.728" rx="3.809" ry="3.728" fill="#dedede"/>
        </g>
      </g>
      <g id="Group_10659" data-name="Group 10659" transform="translate(198.894 253.965)" style="mix-blend-mode: color-dodge;isolation: isolate">
        <g id="Group_10656" data-name="Group 10656" transform="translate(3.62 3.231)">
          <path id="Path_239" data-name="Path 239" d="M188.071,161.858l-49.15-48.1H67.848v-.992h71.493l49.446,48.392Z" transform="translate(-67.848 -112.765)" fill="#dedede"/>
        </g>
        <g id="Group_10657" data-name="Group 10657" transform="translate(120.26 48.113)">
          <path id="Path_240" data-name="Path 240" d="M113.26,129.155a3.673,3.673,0,0,1,0,5.272,3.864,3.864,0,0,1-5.387,0,3.673,3.673,0,0,1,0-5.272A3.869,3.869,0,0,1,113.26,129.155Z" transform="translate(-106.758 -128.064)" fill="#dedede"/>
        </g>
        <g id="Group_10658" data-name="Group 10658">
          <path id="Path_241" data-name="Path 241" d="M70.45,111.664a3.728,3.728,0,1,0,3.81,3.726A3.769,3.769,0,0,0,70.45,111.664Z" transform="translate(-66.64 -111.664)" fill="#dedede"/>
        </g>
      </g>
      <g id="Group_10663" data-name="Group 10663" transform="translate(189.017 273.297)" style="mix-blend-mode: color-dodge;isolation: isolate">
        <g id="Group_10660" data-name="Group 10660" transform="translate(3.618 3.233)">
          <path id="Path_242" data-name="Path 242" d="M161.732,153.948l-34.334-33.6H64.552v-.992h63.265l34.631,33.891Z" transform="translate(-64.552 -119.356)" fill="#dedede"/>
        </g>
        <g id="Group_10661" data-name="Group 10661" transform="translate(97.211 33.614)">
          <ellipse id="Ellipse_15" data-name="Ellipse 15" cx="3.81" cy="3.728" rx="3.81" ry="3.728" fill="#dedede"/>
        </g>
        <g id="Group_10662" data-name="Group 10662">
          <ellipse id="Ellipse_16" data-name="Ellipse 16" cx="3.809" cy="3.728" rx="3.809" ry="3.728" fill="#dedede"/>
        </g>
      </g>
      <g id="Group_10667" data-name="Group 10667" transform="translate(-39.471 448.549)" style="mix-blend-mode: color-dodge;isolation: isolate">
        <g id="Group_10664" data-name="Group 10664" transform="translate(3.618 3.232)">
          <rect id="Rectangle_2848" data-name="Rectangle 2848" width="43.797" height="0.992" fill="#dedede"/>
        </g>
        <g id="Group_10665" data-name="Group 10665" transform="translate(43.414)">
          <ellipse id="Ellipse_17" data-name="Ellipse 17" cx="3.809" cy="3.728" rx="3.809" ry="3.728" transform="translate(0)" fill="#dedede"/>
        </g>
        <g id="Group_10666" data-name="Group 10666" transform="translate(0 0.001)">
          <path id="Path_243" data-name="Path 243" d="M-9.067,177.991a3.769,3.769,0,0,0-3.81,3.726,3.77,3.77,0,0,0,3.81,3.729,3.769,3.769,0,0,0,3.807-3.729A3.769,3.769,0,0,0-9.067,177.991Z" transform="translate(12.877 -177.991)" fill="#dedede"/>
        </g>
      </g>
      <g id="Group_10671" data-name="Group 10671" transform="translate(75.765 410.688)" style="mix-blend-mode: color-dodge;isolation: isolate">
        <g id="Group_10668" data-name="Group 10668" transform="translate(3.62 3.233)">
          <path id="Path_244" data-name="Path 244" d="M212.848,210.446l-44.21-43.267H26.773v-.992H169.057l44.507,43.558Z" transform="translate(-26.773 -166.187)" fill="#dedede"/>
        </g>
        <g id="Group_10669" data-name="Group 10669" transform="translate(186.109 43.281)">
          <path id="Path_245" data-name="Path 245" d="M94.152,180.929a3.676,3.676,0,0,1,0,5.275,3.869,3.869,0,0,1-5.387,0,3.676,3.676,0,0,1,0-5.275A3.869,3.869,0,0,1,94.152,180.929Z" transform="translate(-87.65 -179.838)" fill="#dedede"/>
        </g>
        <g id="Group_10670" data-name="Group 10670">
          <ellipse id="Ellipse_18" data-name="Ellipse 18" cx="3.809" cy="3.728" rx="3.809" ry="3.728" fill="#dedede"/>
        </g>
      </g>
      <g id="Group_10675" data-name="Group 10675" transform="translate(-67.461 512.996)" style="mix-blend-mode: color-dodge;isolation: isolate">
        <g id="Group_10672" data-name="Group 10672" transform="translate(3.619 3.232)">
          <path id="Path_246" data-name="Path 246" d="M75.183,320.471h-96.19v-.992H74.764l73.259-71.7h83.959l47.741-46.724h90.427v.991H280.141L232.4,248.776H148.442Z" transform="translate(21.007 -201.06)" fill="#dedede"/>
        </g>
        <g id="Group_10673" data-name="Group 10673" transform="translate(390.776)">
          <ellipse id="Ellipse_19" data-name="Ellipse 19" cx="3.809" cy="3.728" rx="3.809" ry="3.728" fill="#dedede"/>
        </g>
        <g id="Group_10674" data-name="Group 10674" transform="translate(0 118.419)">
          <path id="Path_247" data-name="Path 247" d="M-18.4,240.323a3.77,3.77,0,0,0-3.81,3.729,3.772,3.772,0,0,0,3.81,3.729,3.772,3.772,0,0,0,3.81-3.729A3.77,3.77,0,0,0-18.4,240.323Z" transform="translate(22.214 -240.323)" fill="#dedede"/>
        </g>
      </g>
      <g id="Group_10679" data-name="Group 10679" transform="translate(-71.867 469.504)" style="mix-blend-mode: color-dodge;isolation: isolate">
        <g id="Group_10676" data-name="Group 10676" transform="translate(3.316)">
          <path id="Path_248" data-name="Path 248" d="M-21.861,241.479l-.716-.7,56.856-55.644H204.261l32.925,32.223H340.363v.992h-103.6l-32.925-32.223H34.7Z" transform="translate(22.578 -185.133)" fill="#dedede"/>
        </g>
        <g id="Group_10677" data-name="Group 10677" transform="translate(362.257 28.991)">
          <ellipse id="Ellipse_20" data-name="Ellipse 20" cx="3.809" cy="3.728" rx="3.809" ry="3.728" fill="#dedede"/>
        </g>
        <g id="Group_10678" data-name="Group 10678" transform="translate(0 52.134)">
          <path id="Path_249" data-name="Path 249" d="M-22.569,204a3.673,3.673,0,0,0,0,5.272,3.864,3.864,0,0,0,5.387,0,3.673,3.673,0,0,0,0-5.272A3.869,3.869,0,0,0-22.569,204Z" transform="translate(23.684 -202.904)" fill="#dedede"/>
        </g>
      </g>
      <g id="Group_10683" data-name="Group 10683" transform="translate(-84.215 524.275)" style="mix-blend-mode: color-dodge;isolation: isolate">
        <g id="Group_10680" data-name="Group 10680" transform="translate(3.317 3.232)">
          <path id="Path_250" data-name="Path 250" d="M80.787,263.9H1.346L-26.7,236.451l.716-.7L1.766,262.905h78.6l59.266-58h97.013v.992H140.053Z" transform="translate(26.696 -204.904)" fill="#dedede"/>
        </g>
        <g id="Group_10681" data-name="Group 10681" transform="translate(262.658)">
          <path id="Path_251" data-name="Path 251" d="M63.628,203.8a3.728,3.728,0,1,1-3.81,3.726A3.769,3.769,0,0,1,63.628,203.8Z" transform="translate(-59.818 -203.803)" fill="#dedede"/>
        </g>
        <g id="Group_10682" data-name="Group 10682" transform="translate(0 30.831)">
          <path id="Path_252" data-name="Path 252" d="M-21.3,215.406a3.864,3.864,0,0,0-5.387,0,3.673,3.673,0,0,0,0,5.272,3.869,3.869,0,0,0,5.387,0A3.668,3.668,0,0,0-21.3,215.406Z" transform="translate(27.803 -214.312)" fill="#dedede"/>
        </g>
      </g>
      <g id="Group_10687" data-name="Group 10687" transform="translate(-39.473 500.107)" style="mix-blend-mode: color-dodge;isolation: isolate">
        <g id="Group_10684" data-name="Group 10684" transform="translate(3.62 3.233)">
          <path id="Path_253" data-name="Path 253" d="M28.545,241.964H-11.67v-.992h39.8L73.4,196.667H173.7v.992H73.818Z" transform="translate(11.67 -196.667)" fill="#dedede"/>
        </g>
        <g id="Group_10685" data-name="Group 10685" transform="translate(184.994)">
          <path id="Path_254" data-name="Path 254" d="M52.645,195.565a3.73,3.73,0,1,1-3.81,3.729A3.769,3.769,0,0,1,52.645,195.565Z" transform="translate(-48.835 -195.565)" fill="#dedede"/>
        </g>
        <g id="Group_10686" data-name="Group 10686" transform="translate(0 44.306)">
          <ellipse id="Ellipse_21" data-name="Ellipse 21" cx="3.809" cy="3.728" rx="3.809" ry="3.728" fill="#dedede"/>
        </g>
      </g>
      <g id="Group_10691" data-name="Group 10691" transform="translate(-81.744 377.665)" style="mix-blend-mode: color-dodge;isolation: isolate">
        <g id="Group_10688" data-name="Group 10688" transform="translate(3.317 3.232)">
          <path id="Path_255" data-name="Path 255" d="M-25.156,227.385l-.716-.7,73.318-71.753H239.94v.992H47.865Z" transform="translate(25.872 -154.931)" fill="#dedede"/>
        </g>
        <g id="Group_10689" data-name="Group 10689" transform="translate(265.131)">
          <path id="Path_256" data-name="Path 256" d="M65.274,153.829a3.728,3.728,0,1,1-3.807,3.726A3.769,3.769,0,0,1,65.274,153.829Z" transform="translate(-61.467 -153.829)" fill="#dedede"/>
        </g>
        <g id="Group_10690" data-name="Group 10690" transform="translate(0 71.474)">
          <path id="Path_257" data-name="Path 257" d="M-25.864,179.283a3.676,3.676,0,0,0,0,5.275,3.869,3.869,0,0,0,5.387,0,3.676,3.676,0,0,0,0-5.275A3.869,3.869,0,0,0-25.864,179.283Z" transform="translate(26.979 -178.192)" fill="#dedede"/>
        </g>
      </g>
      <g id="Group_10695" data-name="Group 10695" transform="translate(-59.227 328.927)" style="mix-blend-mode: color-dodge;isolation: isolate">
        <g id="Group_10692" data-name="Group 10692" transform="translate(3.618 3.233)">
          <path id="Path_258" data-name="Path 258" d="M382.487,227.519H351.613L261.48,139.309H-18.26v-.992H261.9l90.133,88.209h30.036l35.394-34.639h97.13l28.571-27.963.716.7L515.012,192.88h-97.13Z" transform="translate(18.26 -138.318)" fill="#dedede"/>
        </g>
        <g id="Group_10693" data-name="Group 10693" transform="translate(561.455 25.595)">
          <path id="Path_259" data-name="Path 259" d="M168.945,147.031a3.873,3.873,0,0,1,5.39,0,3.673,3.673,0,0,1,0,5.272,3.864,3.864,0,0,1-5.387,0A3.67,3.67,0,0,1,168.945,147.031Z" transform="translate(-167.83 -145.94)" fill="#dedede"/>
        </g>
        <g id="Group_10694" data-name="Group 10694">
          <ellipse id="Ellipse_22" data-name="Ellipse 22" cx="3.809" cy="3.728" rx="3.809" ry="3.728" fill="#dedede"/>
        </g>
      </g>
      <g id="Group_10699" data-name="Group 10699" transform="translate(-74.043 304.962)" style="mix-blend-mode: color-dodge;isolation: isolate">
        <g id="Group_10696" data-name="Group 10696" transform="translate(3.618 3.232)">
          <path id="Path_260" data-name="Path 260" d="M389.479,216.329H356.547L269.5,131.14H-23.2v-.992H269.921l87.046,85.189H389.06l25.106-24.57H517.057l26.1-25.546.716.7-26.4,25.836H414.586Z" transform="translate(23.203 -130.149)" fill="#dedede"/>
        </g>
        <g id="Group_10697" data-name="Group 10697" transform="translate(566.394 35.061)">
          <path id="Path_261" data-name="Path 261" d="M165.65,142.089a3.873,3.873,0,0,1,5.39,0,3.673,3.673,0,0,1,0,5.272,3.869,3.869,0,0,1-5.387,0A3.67,3.67,0,0,1,165.65,142.089Z" transform="translate(-164.535 -140.998)" fill="#dedede"/>
        </g>
        <g id="Group_10698" data-name="Group 10698">
          <path id="Path_262" data-name="Path 262" d="M-20.6,129.047a3.77,3.77,0,0,0-3.81,3.729A3.769,3.769,0,0,0-20.6,136.5a3.769,3.769,0,0,0,3.807-3.726A3.769,3.769,0,0,0-20.6,129.047Z" transform="translate(24.41 -129.047)" fill="#dedede"/>
        </g>
      </g>
      <g id="Group_10703" data-name="Group 10703" transform="translate(336.405 322.884)" style="mix-blend-mode: color-dodge;isolation: isolate">
        <g id="Group_10700" data-name="Group 10700" transform="translate(3.316 3.233)">
          <path id="Path_263" data-name="Path 263" d="M114.335,170.046l-.716-.7,33.809-33.087H252.672v.992H147.848Z" transform="translate(-113.619 -136.258)" fill="#dedede"/>
        </g>
        <g id="Group_10701" data-name="Group 10701" transform="translate(138.367)">
          <path id="Path_264" data-name="Path 264" d="M162.481,135.156a3.73,3.73,0,1,1-3.81,3.729A3.77,3.77,0,0,1,162.481,135.156Z" transform="translate(-158.671 -135.156)" fill="#dedede"/>
        </g>
        <g id="Group_10702" data-name="Group 10702" transform="translate(0 32.81)">
          <ellipse id="Ellipse_23" data-name="Ellipse 23" cx="3.81" cy="3.728" rx="3.81" ry="3.728" fill="#dedede"/>
        </g>
      </g>
      <g id="Group_10707" data-name="Group 10707" transform="translate(67.24 58.872)" style="mix-blend-mode: color-dodge;isolation: isolate">
        <g id="Group_10704" data-name="Group 10704" transform="translate(3.318 3.246)">
          <path id="Path_265" data-name="Path 265" d="M206.505,124.365h-103.6L23.828,46.972l.716-.7,78.784,77.1H206.505Z" transform="translate(-23.828 -46.271)" fill="#dedede"/>
        </g>
        <g id="Group_10705" data-name="Group 10705" transform="translate(181.994 77.116)">
          <path id="Path_266" data-name="Path 266" d="M87.243,71.45a3.73,3.73,0,1,1-3.81,3.729A3.77,3.77,0,0,1,87.243,71.45Z" transform="translate(-83.433 -71.45)" fill="#dedede"/>
        </g>
        <g id="Group_10706" data-name="Group 10706">
          <path id="Path_267" data-name="Path 267" d="M29.226,46.255a3.873,3.873,0,0,0-5.39,0,3.676,3.676,0,0,0,0,5.275,3.873,3.873,0,0,0,5.39,0A3.676,3.676,0,0,0,29.226,46.255Z" transform="translate(-22.721 -45.164)" fill="#dedede"/>
        </g>
      </g>
      <g id="Group_10711" data-name="Group 10711" transform="translate(-80.219 87.253)" style="mix-blend-mode: color-dodge;isolation: isolate">
        <g id="Group_10708" data-name="Group 10708" transform="translate(3.618 3.232)">
          <path id="Path_268" data-name="Path 268" d="M165.751,106.643,114.957,56.931H-25.263V55.94h140.64l51.091,50Z" transform="translate(25.263 -55.94)" fill="#dedede"/>
        </g>
        <g id="Group_10709" data-name="Group 10709" transform="translate(191.047 49.727)">
          <path id="Path_269" data-name="Path 269" d="M43.764,72.879a3.673,3.673,0,0,1,0,5.272,3.869,3.869,0,0,1-5.387,0,3.673,3.673,0,0,1,0-5.272A3.869,3.869,0,0,1,43.764,72.879Z" transform="translate(-37.262 -71.788)" fill="#dedede"/>
        </g>
        <g id="Group_10710" data-name="Group 10710">
          <path id="Path_270" data-name="Path 270" d="M-22.66,54.838a3.77,3.77,0,0,0-3.81,3.729A3.772,3.772,0,0,0-22.66,62.3a3.771,3.771,0,0,0,3.807-3.729A3.769,3.769,0,0,0-22.66,54.838Z" transform="translate(26.47 -54.838)" fill="#dedede"/>
        </g>
      </g>
      <g id="Group_10715" data-name="Group 10715" transform="translate(766.96 505.64)" style="mix-blend-mode: color-dodge;isolation: isolate">
        <g id="Group_10712" data-name="Group 10712" transform="translate(3.619 3.232)">
          <path id="Path_271" data-name="Path 271" d="M257.35,198.553h154l64.922,63.54H590.731l89.78,87.865-.716.7-89.484-87.575H475.848l-64.922-63.54H257.35Z" transform="translate(-257.35 -198.553)" fill="#dedede"/>
        </g>
        <g id="Group_10713" data-name="Group 10713">
          <path id="Path_272" data-name="Path 272" d="M259.953,204.909a3.73,3.73,0,1,1,3.81-3.729A3.77,3.77,0,0,1,259.953,204.909Z" transform="translate(-256.143 -197.451)" fill="#dedede"/>
        </g>
        <g id="Group_10714" data-name="Group 10714" transform="translate(422.476 151.128)">
          <path id="Path_273" data-name="Path 273" d="M398.2,255.328a3.864,3.864,0,0,0,5.387,0,3.673,3.673,0,0,0,0-5.272,3.869,3.869,0,0,0-5.387,0A3.668,3.668,0,0,0,398.2,255.328Z" transform="translate(-397.078 -248.965)" fill="#dedede"/>
        </g>
      </g>
      <g id="Group_10719" data-name="Group 10719" transform="translate(790.719 27.455)" style="mix-blend-mode: color-dodge;isolation: isolate">
        <g id="Group_10716" data-name="Group 10716" transform="translate(3.316 3.232)">
          <path id="Path_274" data-name="Path 274" d="M717.516,35.557H821.5v.992H717.936L660.647,92.614H546.184l-64.922,63.539h-157.4l-57.968,56.731-.716-.7,58.265-57.022h157.4l64.922-63.539H660.228Z" transform="translate(-265.175 -35.557)" fill="#dedede"/>
        </g>
        <g id="Group_10717" data-name="Group 10717" transform="translate(0 176.349)">
          <path id="Path_275" data-name="Path 275" d="M270.571,100.929a3.869,3.869,0,0,1-5.387,0,3.673,3.673,0,0,1,0-5.272,3.869,3.869,0,0,1,5.387,0A3.673,3.673,0,0,1,270.571,100.929Z" transform="translate(-264.069 -94.566)" fill="#dedede"/>
        </g>
        <g id="Group_10718" data-name="Group 10718" transform="translate(555.644)">
          <path id="Path_276" data-name="Path 276" d="M453.235,41.91a3.728,3.728,0,1,0-3.807-3.726A3.769,3.769,0,0,0,453.235,41.91Z" transform="translate(-449.428 -34.455)" fill="#dedede"/>
        </g>
      </g>
      <g id="Group_10723" data-name="Group 10723" transform="translate(719.396 431.244)" style="mix-blend-mode: color-dodge;isolation: isolate">
        <g id="Group_10720" data-name="Group 10720" transform="translate(3.318 3.244)">
          <path id="Path_277" data-name="Path 277" d="M242.1,173.2l52.441,51.323H474.805l53.915,52.765h72.427l29.014-28.4H849.616v.992H630.582l-29.015,28.4H528.3l-53.915-52.765H294.12L241.383,173.9Z" transform="translate(-241.383 -173.198)" fill="#dedede"/>
        </g>
        <g id="Group_10721" data-name="Group 10721">
          <path id="Path_278" data-name="Path 278" d="M241.391,178.455a3.673,3.673,0,0,1,0-5.272,3.873,3.873,0,0,1,5.39,0,3.673,3.673,0,0,1,0,5.272A3.873,3.873,0,0,1,241.391,178.455Z" transform="translate(-240.276 -172.092)" fill="#dedede"/>
        </g>
        <g id="Group_10722" data-name="Group 10722" transform="translate(607.551 75.705)">
          <path id="Path_279" data-name="Path 279" d="M446.761,205.352a3.728,3.728,0,1,0-3.81-3.726A3.769,3.769,0,0,0,446.761,205.352Z" transform="translate(-442.951 -197.897)" fill="#dedede"/>
        </g>
      </g>
      <g id="Group_10727" data-name="Group 10727" transform="translate(801.368 164.028)" style="mix-blend-mode: color-dodge;isolation: isolate">
        <g id="Group_10724" data-name="Group 10724" transform="translate(3.318)">
          <path id="Path_280" data-name="Path 280" d="M330.932,81.008h60.918l45.067,44.105H525.2l43.933,43h131.68v.992h-132.1l-43.934-43H436.5L391.431,82H331.352l-61.908,60.587-.716-.7Z" transform="translate(-268.728 -81.008)" fill="#dedede"/>
        </g>
        <g id="Group_10725" data-name="Group 10725" transform="translate(0 57.368)">
          <path id="Path_281" data-name="Path 281" d="M274.125,106.928a3.869,3.869,0,0,1-5.387,0,3.668,3.668,0,0,1,0-5.272,3.864,3.864,0,0,1,5.387,0A3.673,3.673,0,0,1,274.125,106.928Z" transform="translate(-267.621 -100.562)" fill="#dedede"/>
        </g>
        <g id="Group_10726" data-name="Group 10726" transform="translate(431.401 83.87)">
          <ellipse id="Ellipse_24" data-name="Ellipse 24" cx="3.809" cy="3.728" rx="3.809" ry="3.728" fill="#dedede"/>
        </g>
      </g>
      <g id="Group_10731" data-name="Group 10731" transform="translate(725.982 407.117)" style="mix-blend-mode: color-dodge;isolation: isolate">
        <g id="Group_10728" data-name="Group 10728" transform="translate(3.316 3.246)">
          <path id="Path_282" data-name="Path 282" d="M244.3,164.974,295.5,215.089H467.125l57.414,56.188h52.467l42.081-41.186H784.318v.992H619.506l-42.081,41.186H524.119l-57.414-56.188H295.084l-51.5-50.405Z" transform="translate(-243.579 -164.974)" fill="#dedede"/>
        </g>
        <g id="Group_10729" data-name="Group 10729" transform="translate(540.053 65.132)">
          <path id="Path_283" data-name="Path 283" d="M426.441,186.069a3.728,3.728,0,1,1-3.81,3.729A3.77,3.77,0,0,1,426.441,186.069Z" transform="translate(-422.631 -186.069)" fill="#dedede"/>
        </g>
        <g id="Group_10730" data-name="Group 10730">
          <path id="Path_284" data-name="Path 284" d="M248.975,164.959a3.869,3.869,0,0,0-5.387,0,3.673,3.673,0,0,0,0,5.272,3.864,3.864,0,0,0,5.387,0A3.673,3.673,0,0,0,248.975,164.959Z" transform="translate(-242.473 -163.868)" fill="#dedede"/>
        </g>
      </g>
      <g id="Group_10735" data-name="Group 10735" transform="translate(752.613 213.168)" style="mix-blend-mode: color-dodge;isolation: isolate">
        <g id="Group_10732" data-name="Group 10732" transform="translate(3.619)">
          <path id="Path_285" data-name="Path 285" d="M370.971,97.758h74.571l86.406,84.563H710.17l42.985-42.069.716.7-43.282,42.359H531.529L445.123,98.749H371.391L329,140.236H252.564v-.992H328.58Z" transform="translate(-252.564 -97.758)" fill="#dedede"/>
        </g>
        <g id="Group_10733" data-name="Group 10733" transform="translate(0 38.253)">
          <path id="Path_286" data-name="Path 286" d="M255.167,118.255a3.73,3.73,0,1,1,3.81-3.729A3.77,3.77,0,0,1,255.167,118.255Z" transform="translate(-251.357 -110.797)" fill="#dedede"/>
        </g>
        <g id="Group_10734" data-name="Group 10734" transform="translate(500.625 39.248)">
          <path id="Path_287" data-name="Path 287" d="M424.864,117.5a3.671,3.671,0,0,0,0-5.275,3.869,3.869,0,0,0-5.387,0,3.676,3.676,0,0,0,0,5.275A3.869,3.869,0,0,0,424.864,117.5Z" transform="translate(-418.362 -111.136)" fill="#dedede"/>
        </g>
      </g>
      <g id="Group_10739" data-name="Group 10739" transform="translate(807.881 192.615)" style="mix-blend-mode: color-dodge;isolation: isolate">
        <g id="Group_10736" data-name="Group 10736" transform="translate(3.317 3.232)">
          <path id="Path_288" data-name="Path 288" d="M317.877,91.854h41.041v.992H318.3l-46.68,45.685-.716-.7Z" transform="translate(-270.901 -91.854)" fill="#dedede"/>
        </g>
        <g id="Group_10737" data-name="Group 10737" transform="translate(0 45.699)">
          <path id="Path_289" data-name="Path 289" d="M276.3,112.692a3.873,3.873,0,0,1-5.39,0,3.673,3.673,0,0,1,0-5.272,3.873,3.873,0,0,1,5.39,0A3.673,3.673,0,0,1,276.3,112.692Z" transform="translate(-269.794 -106.329)" fill="#dedede"/>
        </g>
        <g id="Group_10738" data-name="Group 10738" transform="translate(87.334)">
          <path id="Path_290" data-name="Path 290" d="M302.738,98.207a3.728,3.728,0,1,0-3.81-3.726A3.769,3.769,0,0,0,302.738,98.207Z" transform="translate(-298.928 -90.752)" fill="#dedede"/>
        </g>
      </g>
      <g id="Group_10743" data-name="Group 10743" transform="translate(725.982 377.311)" style="mix-blend-mode: color-dodge;isolation: isolate">
        <g id="Group_10740" data-name="Group 10740" transform="translate(3.316 3.246)">
          <path id="Path_291" data-name="Path 291" d="M244.3,154.815l54.912,53.739H453.955l51.857,50.752h86.009l44.859-43.9H822.718l55,53.829-.716.7-54.7-53.539H637.1l-44.86,43.9H505.393l-51.857-50.752H298.788l-55.209-54.029Z" transform="translate(-243.579 -154.815)" fill="#dedede"/>
        </g>
        <g id="Group_10741" data-name="Group 10741">
          <path id="Path_292" data-name="Path 292" d="M243.588,160.074a3.673,3.673,0,0,1,0-5.272,3.864,3.864,0,0,1,5.387,0,3.673,3.673,0,0,1,0,5.272A3.869,3.869,0,0,1,243.588,160.074Z" transform="translate(-242.473 -153.708)" fill="#dedede"/>
        </g>
        <g id="Group_10742" data-name="Group 10742" transform="translate(633.154 114.153)">
          <path id="Path_293" data-name="Path 293" d="M454.8,198.982a3.869,3.869,0,0,0,5.387,0,3.673,3.673,0,0,0,0-5.272,3.869,3.869,0,0,0-5.387,0A3.673,3.673,0,0,0,454.8,198.982Z" transform="translate(-453.689 -192.619)" fill="#dedede"/>
        </g>
      </g>
      <g id="Group_10747" data-name="Group 10747" transform="translate(749.029 366.837)" style="mix-blend-mode: color-dodge;isolation: isolate">
        <g id="Group_10744" data-name="Group 10744" transform="translate(3.317 3.247)">
          <path id="Path_294" data-name="Path 294" d="M251.984,151.245l44.624,43.671H435.3l54.121,52.967h83.745l68.185-66.731.716.7-68.482,67.022H489l-54.121-52.968H296.189l-44.921-43.962Z" transform="translate(-251.268 -151.245)" fill="#dedede"/>
        </g>
        <g id="Group_10745" data-name="Group 10745">
          <path id="Path_295" data-name="Path 295" d="M251.279,156.5a3.671,3.671,0,0,1,0-5.275,3.869,3.869,0,0,1,5.387,0,3.676,3.676,0,0,1,0,5.275A3.869,3.869,0,0,1,251.279,156.5Z" transform="translate(-250.161 -150.138)" fill="#dedede"/>
        </g>
        <g id="Group_10746" data-name="Group 10746" transform="translate(389.818 29.909)">
          <path id="Path_296" data-name="Path 296" d="M386.7,166.7a3.673,3.673,0,0,0,0-5.272,3.869,3.869,0,0,0-5.387,0,3.673,3.673,0,0,0,0,5.272A3.869,3.869,0,0,0,386.7,166.7Z" transform="translate(-380.202 -160.333)" fill="#dedede"/>
        </g>
      </g>
      <g id="Group_10751" data-name="Group 10751" transform="translate(719.396 238.544)" style="mix-blend-mode: color-dodge;isolation: isolate">
        <g id="Group_10748" data-name="Group 10748" transform="translate(3.318)">
          <path id="Path_297" data-name="Path 297" d="M422.529,106.407h51.936l98.956,96.847H836.106v.992H573L474.045,107.4h-51.1l-37.041,36.25H285.486L242.1,186.111l-.716-.7,43.684-42.753H385.488Z" transform="translate(-241.383 -106.407)" fill="#dedede"/>
        </g>
        <g id="Group_10749" data-name="Group 10749" transform="translate(0 75.493)">
          <path id="Path_298" data-name="Path 298" d="M246.781,138.506a3.873,3.873,0,0,1-5.39,0,3.673,3.673,0,0,1,0-5.272,3.864,3.864,0,0,1,5.387,0A3.67,3.67,0,0,1,246.781,138.506Z" transform="translate(-240.276 -132.14)" fill="#dedede"/>
        </g>
        <g id="Group_10750" data-name="Group 10750" transform="translate(594.041 93.614)">
          <path id="Path_299" data-name="Path 299" d="M442.254,145.775a3.73,3.73,0,1,0-3.81-3.729A3.772,3.772,0,0,0,442.254,145.775Z" transform="translate(-438.444 -138.317)" fill="#dedede"/>
        </g>
      </g>
      <g id="Group_10755" data-name="Group 10755" transform="translate(797.885 351.313)" style="mix-blend-mode: color-dodge;isolation: isolate">
        <g id="Group_10752" data-name="Group 10752" transform="translate(3.618 3.233)">
          <path id="Path_300" data-name="Path 300" d="M419.41,145.948h35.278v.992H419.829l-32.1,31.417H267.666v-.992H387.308Z" transform="translate(-267.666 -145.948)" fill="#dedede"/>
        </g>
        <g id="Group_10753" data-name="Group 10753" transform="translate(0 31.417)">
          <ellipse id="Ellipse_25" data-name="Ellipse 25" cx="3.809" cy="3.728" rx="3.809" ry="3.728" fill="#dedede"/>
        </g>
        <g id="Group_10754" data-name="Group 10754" transform="translate(186.64)">
          <ellipse id="Ellipse_26" data-name="Ellipse 26" cx="3.809" cy="3.728" rx="3.809" ry="3.728" fill="#dedede"/>
        </g>
      </g>
      <g id="Group_10759" data-name="Group 10759" transform="translate(951.52 382.145)" style="mix-blend-mode: color-dodge;isolation: isolate">
        <g id="Group_10756" data-name="Group 10756" transform="translate(3.316 3.244)">
          <path id="Path_301" data-name="Path 301" d="M319.534,156.462l49.15,48.1h71.074v.992H368.264l-49.447-48.392Z" transform="translate(-318.817 -156.462)" fill="#dedede"/>
        </g>
        <g id="Group_10757" data-name="Group 10757">
          <path id="Path_302" data-name="Path 302" d="M318.826,161.719a3.673,3.673,0,0,1,0-5.272,3.869,3.869,0,0,1,5.387,0,3.673,3.673,0,0,1,0,5.272A3.869,3.869,0,0,1,318.826,161.719Z" transform="translate(-317.711 -155.356)" fill="#dedede"/>
        </g>
        <g id="Group_10758" data-name="Group 10758" transform="translate(120.257 48.113)">
          <path id="Path_303" data-name="Path 303" d="M361.638,179.214a3.73,3.73,0,1,0-3.81-3.729A3.769,3.769,0,0,0,361.638,179.214Z" transform="translate(-357.828 -171.756)" fill="#dedede"/>
        </g>
      </g>
      <g id="Group_10763" data-name="Group 10763" transform="translate(984.443 377.311)" style="mix-blend-mode: color-dodge;isolation: isolate">
        <g id="Group_10760" data-name="Group 10760" transform="translate(3.316 3.246)">
          <path id="Path_304" data-name="Path 304" d="M330.517,154.815l34.334,33.6H427.7v.992H364.431L329.8,155.516Z" transform="translate(-329.8 -154.815)" fill="#dedede"/>
        </g>
        <g id="Group_10761" data-name="Group 10761">
          <ellipse id="Ellipse_27" data-name="Ellipse 27" cx="3.809" cy="3.728" rx="3.809" ry="3.728" fill="#dedede"/>
        </g>
        <g id="Group_10762" data-name="Group 10762" transform="translate(97.212 33.614)">
          <path id="Path_305" data-name="Path 305" d="M364.933,172.623a3.73,3.73,0,1,0-3.81-3.729A3.769,3.769,0,0,0,364.933,172.623Z" transform="translate(-361.123 -165.166)" fill="#dedede"/>
        </g>
      </g>
      <g id="Group_10767" data-name="Group 10767" transform="translate(1266.728 235.673)" style="mix-blend-mode: color-dodge;isolation: isolate">
        <g id="Group_10764" data-name="Group 10764" transform="translate(3.62 3.232)">
          <rect id="Rectangle_2849" data-name="Rectangle 2849" width="43.797" height="0.992" fill="#dedede"/>
        </g>
        <g id="Group_10765" data-name="Group 10765">
          <path id="Path_306" data-name="Path 306" d="M426.672,112.887a3.73,3.73,0,1,1,3.81-3.729A3.774,3.774,0,0,1,426.672,112.887Z" transform="translate(-422.862 -105.429)" fill="#dedede"/>
        </g>
        <g id="Group_10766" data-name="Group 10766" transform="translate(43.415)">
          <path id="Path_307" data-name="Path 307" d="M441.155,112.887a3.73,3.73,0,1,0-3.81-3.729A3.772,3.772,0,0,0,441.155,112.887Z" transform="translate(-437.345 -105.429)" fill="#dedede"/>
        </g>
      </g>
      <g id="Group_10771" data-name="Group 10771" transform="translate(1008.797 230.252)" style="mix-blend-mode: color-dodge;isolation: isolate">
        <g id="Group_10768" data-name="Group 10768" transform="translate(3.317 3.247)">
          <path id="Path_308" data-name="Path 308" d="M338.641,104.688l44.211,43.267H524.716v.992H382.432l-44.507-43.558Z" transform="translate(-337.924 -104.688)" fill="#dedede"/>
        </g>
        <g id="Group_10769" data-name="Group 10769">
          <path id="Path_309" data-name="Path 309" d="M337.933,109.947a3.673,3.673,0,0,1,0-5.272,3.864,3.864,0,0,1,5.387,0,3.668,3.668,0,0,1,0,5.272A3.869,3.869,0,0,1,337.933,109.947Z" transform="translate(-336.818 -103.581)" fill="#dedede"/>
        </g>
        <g id="Group_10770" data-name="Group 10770" transform="translate(186.109 43.282)">
          <ellipse id="Ellipse_28" data-name="Ellipse 28" cx="3.809" cy="3.728" rx="3.809" ry="3.728" fill="#dedede"/>
        </g>
      </g>
      <g id="Group_10775" data-name="Group 10775" transform="translate(947.356 52.808)" style="mix-blend-mode: color-dodge;isolation: isolate">
        <g id="Group_10772" data-name="Group 10772" transform="translate(3.619 3.232)">
          <path id="Path_310" data-name="Path 310" d="M612.5,44.2h96.19v.992h-95.77l-73.258,71.7H455.7L407.957,163.61H317.529v-.992h90.008l47.741-46.725h83.958Z" transform="translate(-317.529 -44.199)" fill="#dedede"/>
        </g>
        <g id="Group_10773" data-name="Group 10773" transform="translate(0 118.42)">
          <path id="Path_311" data-name="Path 311" d="M320.132,90.917a3.728,3.728,0,1,1,3.807-3.729A3.77,3.77,0,0,1,320.132,90.917Z" transform="translate(-316.322 -83.462)" fill="#dedede"/>
        </g>
        <g id="Group_10774" data-name="Group 10774" transform="translate(390.775)">
          <path id="Path_312" data-name="Path 312" d="M450.492,50.552a3.728,3.728,0,1,0-3.81-3.729A3.77,3.77,0,0,0,450.492,50.552Z" transform="translate(-446.682 -43.097)" fill="#dedede"/>
        </g>
      </g>
      <g id="Group_10779" data-name="Group 10779" transform="translate(980.28 162.585)" style="mix-blend-mode: color-dodge;isolation: isolate">
        <g id="Group_10776" data-name="Group 10776" transform="translate(3.62 3.244)">
          <path id="Path_313" data-name="Path 313" d="M690.737,81.622l.717.7L634.6,137.967H464.615L431.69,105.743H328.513v-.992h103.6l32.925,32.223H634.179Z" transform="translate(-328.513 -81.622)" fill="#dedede"/>
        </g>
        <g id="Group_10777" data-name="Group 10777" transform="translate(0 23.141)">
          <path id="Path_314" data-name="Path 314" d="M331.115,95.862a3.73,3.73,0,1,1,3.81-3.729A3.77,3.77,0,0,1,331.115,95.862Z" transform="translate(-327.305 -88.404)" fill="#dedede"/>
        </g>
        <g id="Group_10778" data-name="Group 10778" transform="translate(362.259)">
          <path id="Path_315" data-name="Path 315" d="M454.657,86.879a3.673,3.673,0,0,0,0-5.272,3.873,3.873,0,0,0-5.39,0,3.673,3.673,0,0,0,0,5.272A3.873,3.873,0,0,0,454.657,86.879Z" transform="translate(-448.152 -80.516)" fill="#dedede"/>
        </g>
      </g>
      <g id="Group_10783" data-name="Group 10783" transform="translate(1092.226 105.179)" style="mix-blend-mode: color-dodge;isolation: isolate">
        <g id="Group_10780" data-name="Group 10780" transform="translate(3.618)">
          <path id="Path_316" data-name="Path 316" d="M521.716,60.948h79.441L629.2,88.394l-.716.7L600.737,61.94h-78.6l-59.266,58H365.856v-.992H462.45Z" transform="translate(-365.856 -60.948)" fill="#dedede"/>
        </g>
        <g id="Group_10781" data-name="Group 10781" transform="translate(0 54.769)">
          <ellipse id="Ellipse_29" data-name="Ellipse 29" cx="3.809" cy="3.728" rx="3.809" ry="3.728" fill="#dedede"/>
        </g>
        <g id="Group_10782" data-name="Group 10782" transform="translate(262.66 23.936)">
          <path id="Path_317" data-name="Path 317" d="M453.386,75.473a3.869,3.869,0,0,0,5.387,0,3.668,3.668,0,0,0,0-5.272,3.864,3.864,0,0,0-5.387,0A3.673,3.673,0,0,0,453.386,75.473Z" transform="translate(-452.271 -69.107)" fill="#dedede"/>
        </g>
      </g>
      <g id="Group_10787" data-name="Group 10787" transform="translate(1125.152 139.809)" style="mix-blend-mode: color-dodge;isolation: isolate">
        <g id="Group_10784" data-name="Group 10784" transform="translate(3.62 3.232)">
          <path id="Path_318" data-name="Path 318" d="M522,73.854h40.215v.992h-39.8l-45.273,44.305h-100.3v-.992h99.884Z" transform="translate(-376.841 -73.854)" fill="#dedede"/>
        </g>
        <g id="Group_10785" data-name="Group 10785" transform="translate(0 44.306)">
          <ellipse id="Ellipse_30" data-name="Ellipse 30" cx="3.809" cy="3.728" rx="3.809" ry="3.728" fill="#dedede"/>
        </g>
        <g id="Group_10786" data-name="Group 10786" transform="translate(184.993)">
          <ellipse id="Ellipse_31" data-name="Ellipse 31" cx="3.809" cy="3.728" rx="3.809" ry="3.728" fill="#dedede"/>
        </g>
      </g>
      <g id="Group_10791" data-name="Group 10791" transform="translate(1087.287 235.083)" style="mix-blend-mode: color-dodge;isolation: isolate">
        <g id="Group_10788" data-name="Group 10788" transform="translate(3.618 3.244)">
          <path id="Path_319" data-name="Path 319" d="M629.305,106.334l.716.7L556.7,178.788H364.209V177.8H556.284Z" transform="translate(-364.209 -106.334)" fill="#dedede"/>
        </g>
        <g id="Group_10789" data-name="Group 10789" transform="translate(0 71.474)">
          <path id="Path_320" data-name="Path 320" d="M366.809,137.048a3.73,3.73,0,1,1,3.81-3.729A3.767,3.767,0,0,1,366.809,137.048Z" transform="translate(-363.002 -129.591)" fill="#dedede"/>
        </g>
        <g id="Group_10790" data-name="Group 10790" transform="translate(265.128)">
          <path id="Path_321" data-name="Path 321" d="M457.952,111.591a3.673,3.673,0,0,0,0-5.272,3.873,3.873,0,0,0-5.39,0,3.673,3.673,0,0,0,0,5.272A3.873,3.873,0,0,0,457.952,111.591Z" transform="translate(-451.447 -105.228)" fill="#dedede"/>
        </g>
      </g>
      <g id="Group_10795" data-name="Group 10795" transform="translate(768.444 270.319)" style="mix-blend-mode: color-dodge;isolation: isolate">
        <g id="Group_10792" data-name="Group 10792" transform="translate(3.315)">
          <path id="Path_322" data-name="Path 322" d="M419.136,117.238h30.875l90.133,88.209h279.74v.992H539.724L449.592,118.23H419.556l-35.395,34.638h-97.13L258.46,180.831l-.716-.7,28.868-28.253h97.13Z" transform="translate(-257.744 -117.238)" fill="#dedede"/>
        </g>
        <g id="Group_10793" data-name="Group 10793" transform="translate(0 59.383)">
          <path id="Path_323" data-name="Path 323" d="M263.14,143.843a3.869,3.869,0,0,1-5.387,0,3.673,3.673,0,0,1,0-5.272,3.869,3.869,0,0,1,5.387,0A3.673,3.673,0,0,1,263.14,143.843Z" transform="translate(-256.638 -137.48)" fill="#dedede"/>
        </g>
        <g id="Group_10794" data-name="Group 10794" transform="translate(561.453 84.977)">
          <path id="Path_324" data-name="Path 324" d="M447.745,153.662a3.73,3.73,0,1,0-3.81-3.729A3.77,3.77,0,0,0,447.745,153.662Z" transform="translate(-443.935 -146.204)" fill="#dedede"/>
        </g>
      </g>
      <g id="Group_10799" data-name="Group 10799" transform="translate(778.321 297.304)" style="mix-blend-mode: color-dodge;isolation: isolate">
        <g id="Group_10796" data-name="Group 10796" transform="translate(3.316)">
          <path id="Path_325" data-name="Path 325" d="M415.435,126.437h32.933l87.046,85.189h292.7v.991H534.993l-87.046-85.189H415.854L390.748,152H287.857l-26.1,25.546-.716-.7,26.4-25.836H390.328Z" transform="translate(-261.039 -126.437)" fill="#dedede"/>
        </g>
        <g id="Group_10797" data-name="Group 10797" transform="translate(0 46.896)">
          <path id="Path_326" data-name="Path 326" d="M266.435,148.788a3.869,3.869,0,0,1-5.387,0,3.676,3.676,0,0,1,0-5.275,3.869,3.869,0,0,1,5.387,0A3.676,3.676,0,0,1,266.435,148.788Z" transform="translate(-259.933 -142.422)" fill="#dedede"/>
        </g>
        <g id="Group_10798" data-name="Group 10798" transform="translate(566.393 81.957)">
          <path id="Path_327" data-name="Path 327" d="M452.688,161.83a3.73,3.73,0,1,0-3.81-3.729A3.77,3.77,0,0,0,452.688,161.83Z" transform="translate(-448.878 -154.373)" fill="#dedede"/>
        </g>
      </g>
      <g id="Group_10803" data-name="Group 10803" transform="translate(795.898 328.529)" style="mix-blend-mode: color-dodge;isolation: isolate">
        <g id="Group_10800" data-name="Group 10800" transform="translate(3.618 3.245)">
          <path id="Path_328" data-name="Path 328" d="M405.34,138.186l.717.7-33.809,33.087H267v-.992H371.828Z" transform="translate(-267.004 -138.186)" fill="#dedede"/>
        </g>
        <g id="Group_10801" data-name="Group 10801" transform="translate(0 32.809)">
          <ellipse id="Ellipse_32" data-name="Ellipse 32" cx="3.809" cy="3.728" rx="3.809" ry="3.728" fill="#dedede"/>
        </g>
        <g id="Group_10802" data-name="Group 10802" transform="translate(138.37)">
          <path id="Path_329" data-name="Path 329" d="M318.458,143.443a3.673,3.673,0,0,0,0-5.272,3.869,3.869,0,0,0-5.387,0,3.673,3.673,0,0,0,0,5.272A3.869,3.869,0,0,0,318.458,143.443Z" transform="translate(-311.956 -137.08)" fill="#dedede"/>
        </g>
      </g>
      <g id="Group_10807" data-name="Group 10807" transform="translate(1021.438 548.232)" style="mix-blend-mode: color-dodge;isolation: isolate">
        <g id="Group_10804" data-name="Group 10804" transform="translate(3.618 3.233)">
          <path id="Path_330" data-name="Path 330" d="M342.242,213.071h103.6l79.081,77.394-.716.7-78.784-77.1H342.242Z" transform="translate(-342.242 -213.071)" fill="#dedede"/>
        </g>
        <g id="Group_10805" data-name="Group 10805">
          <path id="Path_331" data-name="Path 331" d="M344.845,219.427a3.73,3.73,0,1,1,3.807-3.729A3.77,3.77,0,0,1,344.845,219.427Z" transform="translate(-341.035 -211.969)" fill="#dedede"/>
        </g>
        <g id="Group_10806" data-name="Group 10806" transform="translate(181.994 77.119)">
          <path id="Path_332" data-name="Path 332" d="M402.862,244.619a3.869,3.869,0,0,0,5.387,0,3.673,3.673,0,0,0,0-5.272,3.869,3.869,0,0,0-5.387,0A3.673,3.673,0,0,0,402.862,244.619Z" transform="translate(-401.747 -238.256)" fill="#dedede"/>
        </g>
      </g>
      <g id="Group_10811" data-name="Group 10811" transform="translate(1159.843 547.243)" style="mix-blend-mode: color-dodge;isolation: isolate">
        <g id="Group_10808" data-name="Group 10808" transform="translate(3.318 3.246)">
          <path id="Path_333" data-name="Path 333" d="M389.029,212.739l50.794,49.712h140.22v.992H439.4l-51.091-50Z" transform="translate(-388.313 -212.739)" fill="#dedede"/>
        </g>
        <g id="Group_10809" data-name="Group 10809">
          <path id="Path_334" data-name="Path 334" d="M388.321,218a3.677,3.677,0,0,1,0-5.275,3.873,3.873,0,0,1,5.39,0,3.677,3.677,0,0,1,0,5.275A3.873,3.873,0,0,1,388.321,218Z" transform="translate(-387.206 -211.632)" fill="#dedede"/>
        </g>
        <g id="Group_10810" data-name="Group 10810" transform="translate(191.048 49.726)">
          <ellipse id="Ellipse_33" data-name="Ellipse 33" cx="3.809" cy="3.728" rx="3.809" ry="3.728" fill="#dedede"/>
        </g>
      </g>
    </g>
  </g>
</svg>
