<svg xmlns="http://www.w3.org/2000/svg" width="17" height="13.877" viewBox="0 0 17 13.877">
  <g id="Icon_map-grocery-or-supermarket" data-name="Icon map-grocery-or-supermarket" transform="translate(0 -4.32)">
    <path id="Path_1485" data-name="Path 1485" d="M32.519,29.22a1.86,1.86,0,1,1-1.86-1.86,1.86,1.86,0,0,1,1.86,1.86Z" transform="translate(-15.984 -12.882)" fill="#fff"/>
    <path id="Path_1486" data-name="Path 1486" d="M11.639,29.22a1.86,1.86,0,1,1-1.86-1.86,1.86,1.86,0,0,1,1.86,1.86Z" transform="translate(-4.357 -12.882)" fill="#fff"/>
    <path id="Path_1487" data-name="Path 1487" d="M16.306,12.763H5.472l.231-.338a.573.573,0,0,0,.081-.486l-.226-.784,10.055-.471a.7.7,0,0,0,.693-.658V5.883a.664.664,0,0,0-.694-.625H3.858l-.136-.47A.685.685,0,0,0,3.05,4.32H.694A.662.662,0,0,0,0,4.945a.662.662,0,0,0,.694.625h1.82L4.367,12,3.638,13.06a.572.572,0,0,0-.015.633.708.708,0,0,0,.605.321H16.306a.629.629,0,1,0,0-1.251Z" fill="#fff"/>
  </g>
</svg>
