<svg id="Group_11228" data-name="Group 11228" xmlns="http://www.w3.org/2000/svg" width="65.316" height="83.011" viewBox="0 0 65.316 83.011">
  <path id="Path_209" data-name="Path 209" d="M589.022,592.017l-5.683,7.492a8.745,8.745,0,0,0-1.262,5.555c.055.269.092.544.123.82l.172,1.328A29.271,29.271,0,0,0,595.736,584.1a14.859,14.859,0,0,1-4.146,2.083A13.591,13.591,0,0,1,589.022,592.017Z" transform="translate(-530.42 -534.06)" fill="#fff"/>
  <path id="Path_210" data-name="Path 210" d="M480.071,599.51l-5.685-7.493a13.606,13.606,0,0,1-2.567-5.835,14.863,14.863,0,0,1-4.146-2.083,29.26,29.26,0,0,0,13.261,23.047l.4-2.117A8.664,8.664,0,0,0,480.071,599.51Z" transform="translate(-467.673 -534.061)" fill="#fff"/>
  <path id="Path_211" data-name="Path 211" d="M501.806,525.821a28.224,28.224,0,0,1,26.712,0c4.159-.642,6.147-2.069,7.11-3.808a35.023,35.023,0,0,0-40.932,0C495.659,523.753,497.647,525.179,501.806,525.821Z" transform="translate(-482.504 -496.363)" fill="#fff"/>
  <path id="Path_212" data-name="Path 212" d="M533,517.129a10.427,10.427,0,0,0-5.393-3.994,21.209,21.209,0,0,0,4.634-8.594,22.143,22.143,0,0,0,.74-4.863,23.377,23.377,0,0,0-.107-3.349,25.617,25.617,0,0,0-2.416-8.424q-.48-1-1.026-1.952a33.135,33.135,0,0,0-2.415-3.618q-.659-.862-1.364-1.684a53.015,53.015,0,0,0-4.568-4.664q-.808-.737-1.639-1.454a5.112,5.112,0,0,0-1.225-.737c-.444-.2-.907-.387-1.338-.606l-.284.445c.837.966,1.707,1.908,2.558,2.864s1.681,1.927,2.441,2.952a23.74,23.74,0,0,1,1.8,2.813,22.678,22.678,0,0,1,1.691,3.965q.162.51.3,1.026a25.573,25.573,0,0,1,.728,8.637,11.2,11.2,0,0,1-3.035,7.253,11.615,11.615,0,0,1-3.554,2.412,16.871,16.871,0,0,1-2.365.85,23.2,23.2,0,0,1-2.785.592,13.168,13.168,0,0,1-1.932.14c-1.952.009-3.956-.316-5.921-.435q-.464-.028-.91-.017a7.13,7.13,0,0,0-5.214,2.184,7.13,7.13,0,0,0-5.214-2.184q-.446-.011-.91.017c-1.31.079-2.637.25-3.955.352q-.494.039-.986.062c-.328.014-.655.022-.98.021s-.649-.012-.971-.035-.642-.056-.961-.105a21.351,21.351,0,0,1-4.019-.986,13.7,13.7,0,0,1-3.1-1.549,10.65,10.65,0,0,1-1.589-1.32,11.2,11.2,0,0,1-3.034-7.253,25.559,25.559,0,0,1,.728-8.637q.138-.516.3-1.026a22.683,22.683,0,0,1,1.691-3.965,23.741,23.741,0,0,1,1.8-2.813c1.14-1.536,2.44-2.952,3.725-4.38.429-.476.855-.953,1.274-1.436l-.284-.445c-.43.22-.894.4-1.338.606a5.1,5.1,0,0,0-1.225.737c-1.106.957-2.188,1.937-3.228,2.952q-.78.762-1.527,1.552a36.823,36.823,0,0,0-5.232,6.916q-.545.951-1.027,1.952a24.926,24.926,0,0,0-2.522,11.773,21.467,21.467,0,0,0,4.315,12.166q.5.662,1.059,1.29a10.427,10.427,0,0,0-5.393,3.994,10.386,10.386,0,0,0,8.361,4.478q-.063.455-.081.912c-.012.3-.009.608.009.91a9.254,9.254,0,0,0,.282,1.79q.114.439.271.866a9.245,9.245,0,0,0,1.315,2.4l5.685,7.493a12.94,12.94,0,0,1,2.069,9.075c-.016.081-.029.495-.04.991a4,4,0,0,0,1.546,3.247l8.475,6.6.975.036.151.271,3.584-.133,3.584.133.217-.274.909-.033,8.474-6.6a4.006,4.006,0,0,0,1.546-3.247c-.011-.5-.023-.91-.04-.991a12.94,12.94,0,0,1,2.069-9.075l5.685-7.493a9.268,9.268,0,0,0,1.867-5.06c.018-.3.021-.606.009-.91s-.039-.609-.082-.912A10.386,10.386,0,0,0,533,517.129Zm-18.415,1.335a1.437,1.437,0,0,1,1.914.553,5.783,5.783,0,0,1-.727,7.224c-1.761,1.884-3.108,3.24-4.043,4.152a1.445,1.445,0,0,1-2.408-.664C508.565,526.853,508.339,521.758,514.586,518.464Zm-30.305.553a1.436,1.436,0,0,1,1.914-.553c6.248,3.294,6.022,8.389,5.264,11.265a1.446,1.446,0,0,1-2.408.664c-.935-.912-2.282-2.268-4.043-4.152A5.783,5.783,0,0,1,484.281,519.017Z" transform="translate(-467.744 -473.19)" fill="#fff"/>
</svg>
