<svg xmlns="http://www.w3.org/2000/svg" xmlns:xlink="http://www.w3.org/1999/xlink" width="1280" height="800" viewBox="0 0 1280 800">
  <defs>
    <style>
      .cls-1 {
        clip-path: url(#clip-Mission-Vision-Bkgd);
      }

      .cls-2 {
        fill: #969696;
      }
    </style>
    <clipPath id="clip-Mission-Vision-Bkgd">
      <rect width="1280" height="800"/>
    </clipPath>
  </defs>
  <g id="Mission-Vision-Bkgd" class="cls-1">
    <g id="Group_11252" data-name="Group 11252" transform="translate(358.701 14.5)">
      <path id="Path_1438" data-name="Path 1438" class="cls-2" d="M154.216-5.518a4.539,4.539,0,0,0,4.538-4.538,4.539,4.539,0,0,0-4.538-4.538,4.539,4.539,0,0,0-4.538,4.538A4.539,4.539,0,0,0,154.216-5.518Z" transform="translate(-149.678 14.593)"/>
    </g>
    <g id="Group_11373" data-name="Group 11373">
      <g id="Group_11249" data-name="Group 11249" transform="translate(-6.678 677.758)">
        <path id="Path_1435" data-name="Path 1435" class="cls-2" d="M74.947,260.2H-1.7v1.207H74.448L181.032,367.992l.853-.853Z" transform="translate(1.701 -260.199)"/>
      </g>
      <g id="Group_11250" data-name="Group 11250" transform="translate(171.785 780.427)">
        <path id="Path_1436" data-name="Path 1436" class="cls-2" d="M73.566,310.48a4.536,4.536,0,1,0,0-6.415A4.536,4.536,0,0,0,73.566,310.48Z" transform="translate(-72.238 -302.736)"/>
      </g>
      <g id="Group_11251" data-name="Group 11251" transform="translate(-6.678 18.434)">
        <path id="Path_1437" data-name="Path 1437" class="cls-2" d="M244.582-12.963,176.345,55.274H40.007L-1.7,96.982v1.706L40.507,56.481H176.845l68.237-68.237h123.36v-1.207Z" transform="translate(1.701 12.963)"/>
      </g>
      <g id="Group_11253" data-name="Group 11253" transform="translate(-6.678 602.018)">
        <path id="Path_1439" data-name="Path 1439" class="cls-2" d="M83.922,228.819,49.361,263.38H-1.7v1.207H49.861l34.561-34.561H345.317v-1.207Z" transform="translate(1.701 -228.819)"/>
      </g>
      <g id="Group_11254" data-name="Group 11254" transform="translate(335.576 598.082)">
        <path id="Path_1440" data-name="Path 1440" class="cls-2" d="M144.635,236.264a4.538,4.538,0,1,0-4.538-4.538A4.539,4.539,0,0,0,144.635,236.264Z" transform="translate(-140.097 -227.189)"/>
      </g>
      <g id="Group_11255" data-name="Group 11255" transform="translate(-6.678 234.4)">
        <path id="Path_1441" data-name="Path 1441" class="cls-2" d="M76.294,128.844,23.963,76.513H-1.7V77.72H23.464l52.331,52.331H233.14v-1.207Z" transform="translate(1.701 -76.513)"/>
      </g>
      <g id="Group_11256" data-name="Group 11256" transform="translate(223.398 282.796)">
        <path id="Path_1442" data-name="Path 1442" class="cls-2" d="M98.159,105.639a4.538,4.538,0,1,0-4.538-4.538A4.539,4.539,0,0,0,98.159,105.639Z" transform="translate(-93.621 -96.564)"/>
      </g>
      <g id="Group_11257" data-name="Group 11257" transform="translate(-6.678 559.784)">
        <path id="Path_1443" data-name="Path 1443" class="cls-2" d="M75.955,211.322,25.83,261.448H-1.7v1.207H26.33l50.125-50.126H272.764v-1.207Z" transform="translate(1.701 -211.322)"/>
      </g>
      <g id="Group_11258" data-name="Group 11258" transform="translate(263.023 555.851)">
        <circle id="Ellipse_67" data-name="Ellipse 67" class="cls-2" cx="4.537" cy="4.537" r="4.537"/>
      </g>
      <g id="Group_11259" data-name="Group 11259" transform="translate(-6.678 292.248)">
        <path id="Path_1444" data-name="Path 1444" class="cls-2" d="M257.028,100.48l-51.2,51.2H-1.7v1.207H206.326l51.555-51.555Z" transform="translate(1.701 -100.48)"/>
      </g>
      <g id="Group_11260" data-name="Group 11260" transform="translate(247.78 288.298)">
        <path id="Path_1445" data-name="Path 1445" class="cls-2" d="M111.469,106.588a4.537,4.537,0,1,0-6.418,0A4.536,4.536,0,0,0,111.469,106.588Z" transform="translate(-103.723 -98.844)"/>
      </g>
      <g id="Group_11261" data-name="Group 11261" transform="translate(-6.678 517.994)">
        <path id="Path_1446" data-name="Path 1446" class="cls-2" d="M318.5,194.008H96.912L43.479,247.443H-1.7v1.207H43.979l53.433-53.436H318l65.161,65.161.853-.853Z" transform="translate(1.701 -194.008)"/>
      </g>
      <g id="Group_11262" data-name="Group 11262" transform="translate(373.917 579.237)">
        <circle id="Ellipse_68" data-name="Ellipse 68" class="cls-2" cx="4.538" cy="4.538" r="4.538"/>
      </g>
      <g id="Group_11263" data-name="Group 11263" transform="translate(-6.678 467.908)">
        <path id="Path_1447" data-name="Path 1447" class="cls-2" d="M120.773,173.257,39.556,254.475H-1.7v1.207H40.055l81.571-81.571Z" transform="translate(1.701 -173.257)"/>
      </g>
      <g id="Group_11264" data-name="Group 11264" transform="translate(111.525 463.958)">
        <path id="Path_1448" data-name="Path 1448" class="cls-2" d="M55.016,179.367a4.537,4.537,0,1,0-6.416,0A4.539,4.539,0,0,0,55.016,179.367Z" transform="translate(-47.272 -171.621)"/>
      </g>
      <g id="Group_11265" data-name="Group 11265" transform="translate(-6.678 371.245)">
        <path id="Path_1449" data-name="Path 1449" class="cls-2" d="M16.337,151.247-1.7,133.209v1.707l17.538,17.538H329.225v-1.207Z" transform="translate(1.701 -133.209)"/>
      </g>
      <g id="Group_11266" data-name="Group 11266" transform="translate(319.484 385.349)">
        <path id="Path_1450" data-name="Path 1450" class="cls-2" d="M137.968,148.127a4.538,4.538,0,1,0-4.538-4.538A4.537,4.537,0,0,0,137.968,148.127Z" transform="translate(-133.43 -139.052)"/>
      </g>
      <g id="Group_11267" data-name="Group 11267" transform="translate(-6.678 508.68)">
        <rect id="Rectangle_2866" data-name="Rectangle 2866" class="cls-2" width="43.078" height="1.207"/>
      </g>
      <g id="Group_11268" data-name="Group 11268" transform="translate(31.637 504.746)">
        <path id="Path_1451" data-name="Path 1451" class="cls-2" d="M18.711,197.594a4.538,4.538,0,1,0-4.538-4.538A4.539,4.539,0,0,0,18.711,197.594Z" transform="translate(-14.173 -188.519)"/>
      </g>
      <g id="Group_11269" data-name="Group 11269" transform="translate(-6.678 485.149)">
        <rect id="Rectangle_2867" data-name="Rectangle 2867" class="cls-2" width="54.844" height="1.207"/>
      </g>
      <g id="Group_11270" data-name="Group 11270" transform="translate(43.402 481.215)">
        <circle id="Ellipse_69" data-name="Ellipse 69" class="cls-2" cx="4.537" cy="4.537" r="4.537"/>
      </g>
      <g id="Group_11271" data-name="Group 11271" transform="translate(268.159 271.854)">
        <rect id="Rectangle_2868" data-name="Rectangle 2868" class="cls-2" width="52.165" height="1.207" transform="translate(0 0)"/>
      </g>
      <g id="Group_11272" data-name="Group 11272" transform="translate(263.849 267.918)">
        <path id="Path_1452" data-name="Path 1452" class="cls-2" d="M114.918,99.475a4.538,4.538,0,1,1,4.538-4.538A4.539,4.539,0,0,1,114.918,99.475Z" transform="translate(-110.38 -90.4)"/>
      </g>
      <g id="Group_11273" data-name="Group 11273" transform="translate(315.562 267.918)">
        <path id="Path_1453" data-name="Path 1453" class="cls-2" d="M136.34,99.475a4.538,4.538,0,1,0-4.535-4.538A4.537,4.537,0,0,0,136.34,99.475Z" transform="translate(-131.805 -90.4)"/>
      </g>
      <g id="Group_11274" data-name="Group 11274" transform="translate(-6.678 297.172)">
        <path id="Path_1454" data-name="Path 1454" class="cls-2" d="M19.062,123.282-1.7,102.52v1.706l20.263,20.262H188.04v-1.207Z" transform="translate(1.701 -102.52)"/>
      </g>
      <g id="Group_11275" data-name="Group 11275" transform="translate(178.298 314)">
        <path id="Path_1455" data-name="Path 1455" class="cls-2" d="M79.474,118.567a4.538,4.538,0,1,0-4.538-4.538A4.539,4.539,0,0,0,79.474,118.567Z" transform="translate(-74.936 -109.492)"/>
      </g>
      <g id="Group_11276" data-name="Group 11276" transform="translate(-6.678 49.291)">
        <path id="Path_1456" data-name="Path 1456" class="cls-2" d="M244.065-.179l-87.259,87.26H56.8L-.066,143.947H-1.7v1.207H.434L57.3,88.288H157.306l87.259-87.26H358.639V-.179Z" transform="translate(1.701 0.179)"/>
      </g>
      <g id="Group_11277" data-name="Group 11277" transform="translate(348.898 45.357)">
        <circle id="Ellipse_70" data-name="Ellipse 70" class="cls-2" cx="4.537" cy="4.537" r="4.537"/>
      </g>
      <g id="Group_11278" data-name="Group 11278" transform="translate(-6.678 182.914)">
        <path id="Path_1457" data-name="Path 1457" class="cls-2" d="M363.4,55.182l-67.367,67.369H94.557L55.339,83.333H-1.7V84.54h56.54l39.219,39.219h202.47l67.721-67.723Z" transform="translate(1.701 -55.182)"/>
      </g>
      <g id="Group_11279" data-name="Group 11279" transform="translate(354.148 178.964)">
        <path id="Path_1458" data-name="Path 1458" class="cls-2" d="M155.538,61.292a4.538,4.538,0,1,0-6.418,0A4.539,4.539,0,0,0,155.538,61.292Z" transform="translate(-147.792 -53.546)"/>
      </g>
      <g id="Group_11280" data-name="Group 11280" transform="translate(60.305 109.098)">
        <path id="Path_1459" data-name="Path 1459" class="cls-2" d="M141.605,96.4H26.051V95.191H141.106L211.7,24.6h94.622l33.4,33.4-.853.853L305.82,25.806H212.2Z" transform="translate(-26.051 -24.6)"/>
      </g>
      <g id="Group_11281" data-name="Group 11281" transform="translate(55.995 175.755)">
        <path id="Path_1460" data-name="Path 1460" class="cls-2" d="M28.8,61.291a4.538,4.538,0,1,1,4.538-4.538A4.537,4.537,0,0,1,28.8,61.291Z" transform="translate(-24.265 -52.216)"/>
      </g>
      <g id="Group_11282" data-name="Group 11282" transform="translate(368.854 138.23)">
        <path id="Path_1461" data-name="Path 1461" class="cls-2" d="M155.213,44.416a4.538,4.538,0,1,0,0-6.418A4.539,4.539,0,0,0,155.213,44.416Z" transform="translate(-153.885 -36.669)"/>
      </g>
      <g id="Group_11283" data-name="Group 11283" transform="translate(99.522 155.179)">
        <path id="Path_1462" data-name="Path 1462" class="cls-2" d="M161.774,98.822H42.3V97.615H161.275L215.2,43.691h47.9V44.9H215.7Z" transform="translate(-42.299 -43.691)"/>
      </g>
      <g id="Group_11284" data-name="Group 11284" transform="translate(95.212 205.169)">
        <circle id="Ellipse_71" data-name="Ellipse 71" class="cls-2" cx="4.537" cy="4.537" r="4.537" transform="translate(0)"/>
      </g>
      <g id="Group_11285" data-name="Group 11285" transform="translate(315.562 151.247)">
        <path id="Path_1463" data-name="Path 1463" class="cls-2" d="M136.343,51.135A4.536,4.536,0,1,0,131.8,46.6,4.537,4.537,0,0,0,136.343,51.135Z" transform="translate(-131.805 -42.062)"/>
      </g>
      <g id="Group_11286" data-name="Group 11286" transform="translate(54.421 271.151)">
        <path id="Path_1464" data-name="Path 1464" class="cls-2" d="M252.9,179.921H23.613v-1.207H252.4l86.977-86.974.853.853Z" transform="translate(-23.613 -91.739)"/>
      </g>
      <g id="Group_11287" data-name="Group 11287" transform="translate(50.111 354.193)">
        <path id="Path_1465" data-name="Path 1465" class="cls-2" d="M26.365,135.219a4.538,4.538,0,1,1,4.538-4.538A4.539,4.539,0,0,1,26.365,135.219Z" transform="translate(-21.827 -126.144)"/>
      </g>
      <g id="Group_11288" data-name="Group 11288" transform="translate(365.912 267.2)">
        <path id="Path_1466" data-name="Path 1466" class="cls-2" d="M160.412,97.849a4.538,4.538,0,1,0-6.418,0A4.539,4.539,0,0,0,160.412,97.849Z" transform="translate(-152.666 -90.103)"/>
      </g>
      <g id="Group_11289" data-name="Group 11289" transform="translate(-6.678 400.115)">
        <path id="Path_1467" data-name="Path 1467" class="cls-2" d="M15.629,162.5-1.7,145.17v1.706l16.83,16.83h333.7V162.5Z" transform="translate(1.701 -145.17)"/>
      </g>
      <g id="Group_11290" data-name="Group 11290" transform="translate(339.091 413.51)">
        <circle id="Ellipse_72" data-name="Ellipse 72" class="cls-2" cx="4.537" cy="4.537" r="4.537"/>
      </g>
      <g id="Group_11291" data-name="Group 11291" transform="translate(-6.678 427.077)">
        <path id="Path_1468" data-name="Path 1468" class="cls-2" d="M17.835,175.876-1.7,156.34v1.707l19.036,19.036H366.481v-1.207Z" transform="translate(1.701 -156.34)"/>
      </g>
      <g id="Group_11292" data-name="Group 11292" transform="translate(356.739 442.678)">
        <path id="Path_1469" data-name="Path 1469" class="cls-2" d="M153.4,171.879a4.538,4.538,0,1,0-4.538-4.538A4.539,4.539,0,0,0,153.4,171.879Z" transform="translate(-148.865 -162.804)"/>
      </g>
      <g id="Group_11293" data-name="Group 11293" transform="translate(-6.678 652.264)">
        <path id="Path_1470" data-name="Path 1470" class="cls-2" d="M104.361,249.637H-1.7v1.207H103.861L197.7,344.684l.853-.853Z" transform="translate(1.701 -249.637)"/>
      </g>
      <g id="Group_11294" data-name="Group 11294" transform="translate(188.454 742.187)">
        <path id="Path_1471" data-name="Path 1471" class="cls-2" d="M80.472,294.639a4.537,4.537,0,1,0,0-6.418A4.536,4.536,0,0,0,80.472,294.639Z" transform="translate(-79.144 -286.893)"/>
      </g>
      <g id="Group_11295" data-name="Group 11295" transform="translate(140.484 651.077)">
        <path id="Path_1472" data-name="Path 1472" class="cls-2" d="M287.644,310.855H120.127L59.269,250l.853-.853,60.5,60.5H287.644Z" transform="translate(-59.269 -249.145)"/>
      </g>
      <g id="Group_11296" data-name="Group 11296" transform="translate(136.534 647.127)">
        <path id="Path_1473" data-name="Path 1473" class="cls-2" d="M58.963,255.253a4.536,4.536,0,1,1,6.416,0A4.532,4.532,0,0,1,58.963,255.253Z" transform="translate(-57.633 -247.509)"/>
      </g>
      <g id="Group_11297" data-name="Group 11297" transform="translate(364.096 707.646)">
        <circle id="Ellipse_73" data-name="Ellipse 73" class="cls-2" cx="4.537" cy="4.537" r="4.537"/>
      </g>
    </g>
    <g id="Group_11372" data-name="Group 11372">
      <path id="Path_1435-2" data-name="Path 1435" class="cls-2" d="M105.237,260.2h76.648v1.207H105.737L-.848,367.992l-.853-.853Z" transform="translate(1190.761 417.559)"/>
      <path id="Path_1436-2" data-name="Path 1436" class="cls-2" d="M79.982,310.48a4.536,4.536,0,1,1,0-6.415A4.536,4.536,0,0,1,79.982,310.48Z" transform="translate(1112.874 477.692)"/>
      <path id="Path_1437-2" data-name="Path 1437" class="cls-2" d="M122.159-12.963,190.4,55.274H326.734l41.708,41.708v1.706L326.235,56.481H189.9L121.659-11.756H-1.7v-1.207Z" transform="translate(1004.205 31.397)"/>
      <path id="Path_1438-2" data-name="Path 1438" class="cls-2" d="M154.216-5.518a4.539,4.539,0,0,1-4.538-4.538,4.539,4.539,0,0,1,4.538-4.538,4.539,4.539,0,0,1,4.538,4.538A4.539,4.539,0,0,1,154.216-5.518Z" transform="translate(848.515 29.093)"/>
      <path id="Path_1439-2" data-name="Path 1439" class="cls-2" d="M259.694,228.819l34.561,34.561h51.062v1.207H293.755l-34.561-34.561H-1.7v-1.207Z" transform="translate(1027.33 373.198)"/>
      <path id="Path_1440-2" data-name="Path 1440" class="cls-2" d="M144.635,236.264a4.538,4.538,0,1,1,4.538-4.538A4.539,4.539,0,0,1,144.635,236.264Z" transform="translate(881.221 370.894)"/>
      <path id="Path_1441-2" data-name="Path 1441" class="cls-2" d="M155.145,128.844l52.331-52.331H233.14V77.72H207.975l-52.331,52.331H-1.7v-1.207Z" transform="translate(1139.507 157.887)"/>
      <path id="Path_1442-2" data-name="Path 1442" class="cls-2" d="M98.159,105.639A4.538,4.538,0,1,1,102.7,101.1,4.539,4.539,0,0,1,98.159,105.639Z" transform="translate(1039.875 186.232)"/>
      <path id="Path_1443-2" data-name="Path 1443" class="cls-2" d="M195.108,211.322l50.125,50.126h27.531v1.207H244.733l-50.125-50.126H-1.7v-1.207Z" transform="translate(1099.883 348.462)"/>
      <ellipse id="Ellipse_67-2" data-name="Ellipse 67" class="cls-2" cx="4.537" cy="4.537" rx="4.537" ry="4.537" transform="translate(1093.871 555.851)"/>
      <path id="Path_1444-2" data-name="Path 1444" class="cls-2" d="M-.848,100.48l51.2,51.2H257.881v1.207H49.854L-1.7,101.333Z" transform="translate(1114.766 191.769)"/>
      <path id="Path_1445-2" data-name="Path 1445" class="cls-2" d="M105.051,106.588a4.537,4.537,0,1,1,6.418,0A4.536,4.536,0,0,1,105.051,106.588Z" transform="translate(1005.392 189.455)"/>
      <path id="Path_1446-2" data-name="Path 1446" class="cls-2" d="M63.814,194.008H285.4l53.433,53.436h45.18v1.207h-45.68l-53.433-53.436H64.313L-.848,260.376l-.853-.853Z" transform="translate(988.629 323.986)"/>
      <ellipse id="Ellipse_68-2" data-name="Ellipse 68" class="cls-2" cx="4.538" cy="4.538" rx="4.538" ry="4.538" transform="translate(982.978 579.237)"/>
      <path id="Path_1447-2" data-name="Path 1447" class="cls-2" d="M-.848,173.257,80.37,254.475h41.256v1.207H79.87L-1.7,174.11Z" transform="translate(1251.021 294.651)"/>
      <path id="Path_1448-2" data-name="Path 1448" class="cls-2" d="M48.6,179.367a4.537,4.537,0,1,1,6.416,0A4.539,4.539,0,0,1,48.6,179.367Z" transform="translate(1198.1 292.338)"/>
      <path id="Path_1449-2" data-name="Path 1449" class="cls-2" d="M311.187,151.247l18.038-18.038v1.707l-17.538,17.538H-1.7v-1.207Z" transform="translate(1043.422 238.037)"/>
      <path id="Path_1450-2" data-name="Path 1450" class="cls-2" d="M137.965,148.127a4.538,4.538,0,1,1,4.538-4.538A4.537,4.537,0,0,1,137.965,148.127Z" transform="translate(903.982 246.296)"/>
      <rect id="Rectangle_2868-2" data-name="Rectangle 2868" class="cls-2" width="52.165" height="1.207" transform="translate(1045.645 271.854)"/>
      <path id="Path_1452-2" data-name="Path 1452" class="cls-2" d="M114.918,99.475a4.538,4.538,0,1,0-4.538-4.538A4.539,4.539,0,0,0,114.918,99.475Z" transform="translate(982.665 177.519)"/>
      <path id="Path_1453-2" data-name="Path 1453" class="cls-2" d="M136.343,99.475a4.538,4.538,0,1,1,4.535-4.538A4.537,4.537,0,0,1,136.343,99.475Z" transform="translate(909.529 177.519)"/>
      <path id="Path_1454-2" data-name="Path 1454" class="cls-2" d="M167.278,123.282,188.04,102.52v1.706l-20.263,20.262H-1.7v-1.207Z" transform="translate(1184.607 194.652)"/>
      <path id="Path_1455-2" data-name="Path 1455" class="cls-2" d="M79.474,118.567a4.538,4.538,0,1,1,4.538-4.538A4.539,4.539,0,0,1,79.474,118.567Z" transform="translate(1103.66 204.508)"/>
      <path id="Path_1456-2" data-name="Path 1456" class="cls-2" d="M112.873-.179l87.259,87.26H300.138L357,143.947h1.635v1.207H356.5L299.638,88.288H199.632L112.374,1.028H-1.7V-.179Z" transform="translate(1014.008 49.47)"/>
      <ellipse id="Ellipse_70-2" data-name="Ellipse 70" class="cls-2" cx="4.537" cy="4.537" rx="4.537" ry="4.537" transform="translate(1007.996 45.357)"/>
      <path id="Path_1457-2" data-name="Path 1457" class="cls-2" d="M-.848,55.182,66.52,122.552H267.99l39.219-39.219h57.039V84.54h-56.54L268.49,123.758H66.02L-1.7,56.035Z" transform="translate(1008.398 127.732)"/>
      <path id="Path_1458-2" data-name="Path 1458" class="cls-2" d="M149.12,61.292a4.538,4.538,0,1,1,6.418,0A4.539,4.539,0,0,1,149.12,61.292Z" transform="translate(854.955 125.418)"/>
      <path id="Path_1459-2" data-name="Path 1459" class="cls-2" d="M224.17,96.4H339.725V95.191H224.67L154.078,24.6H59.456L26.051,58l.853.853,33.051-33.05h93.623Z" transform="translate(965.939 84.499)"/>
      <path id="Path_1461-2" data-name="Path 1461" class="cls-2" d="M161.631,44.416a4.538,4.538,0,1,1,0-6.418A4.539,4.539,0,0,1,161.631,44.416Z" transform="translate(834.155 101.562)"/>
      <path id="Path_1462-2" data-name="Path 1462" class="cls-2" d="M143.627,98.822H263.1V97.615H144.127L90.2,43.691H42.3V44.9H89.7Z" transform="translate(1003.344 111.488)"/>
      <ellipse id="Ellipse_71-2" data-name="Ellipse 71" class="cls-2" cx="4.537" cy="4.537" rx="4.537" ry="4.537" transform="translate(1261.682 205.169)"/>
      <path id="Path_1463-2" data-name="Path 1463" class="cls-2" d="M136.343,51.135A4.536,4.536,0,1,1,140.88,46.6,4.537,4.537,0,0,1,136.343,51.135Z" transform="translate(909.527 109.185)"/>
      <path id="Path_1464-2" data-name="Path 1464" class="cls-2" d="M110.943,179.921H340.229v-1.207H111.443L24.466,91.739l-.853.853Z" transform="translate(971.319 179.412)"/>
      <path id="Path_1466-2" data-name="Path 1466" class="cls-2" d="M153.994,97.849a4.538,4.538,0,1,1,6.418,0A4.539,4.539,0,0,1,153.994,97.849Z" transform="translate(838.316 177.098)"/>
      <path id="Path_1467-2" data-name="Path 1467" class="cls-2" d="M331.5,162.5l17.329-17.329v1.706L332,163.706H-1.7V162.5Z" transform="translate(1023.815 254.946)"/>
      <ellipse id="Ellipse_72-2" data-name="Ellipse 72" class="cls-2" cx="4.537" cy="4.537" rx="4.537" ry="4.537" transform="translate(1017.803 413.51)"/>
      <path id="Path_1468-2" data-name="Path 1468" class="cls-2" d="M346.945,175.876l19.536-19.536v1.707l-19.036,19.036H-1.7v-1.207Z" transform="translate(1006.166 270.737)"/>
      <path id="Path_1469-2" data-name="Path 1469" class="cls-2" d="M153.4,171.879a4.538,4.538,0,1,1,4.538-4.538A4.539,4.539,0,0,1,153.4,171.879Z" transform="translate(851.29 279.874)"/>
      <path id="Path_1470-2" data-name="Path 1470" class="cls-2" d="M92.494,249.637H198.555v1.207H92.994L-.848,344.684l-.853-.853Z" transform="translate(1174.092 402.627)"/>
      <path id="Path_1471-2" data-name="Path 1471" class="cls-2" d="M86.888,294.639a4.537,4.537,0,1,1,0-6.418A4.536,4.536,0,0,1,86.888,294.639Z" transform="translate(1089.299 455.295)"/>
      <path id="Path_1472-2" data-name="Path 1472" class="cls-2" d="M59.269,310.855H226.786L287.644,250l-.853-.853-60.5,60.5H59.269Z" transform="translate(937.84 401.932)"/>
      <path id="Path_1473-2" data-name="Path 1473" class="cls-2" d="M65.377,255.253a4.536,4.536,0,1,0-6.416,0A4.532,4.532,0,0,0,65.377,255.253Z" transform="translate(1162.728 399.619)"/>
      <ellipse id="Ellipse_73-2" data-name="Ellipse 73" class="cls-2" cx="4.537" cy="4.537" rx="4.537" ry="4.537" transform="translate(992.799 707.647)"/>
      <rect id="Rectangle_2866-2" data-name="Rectangle 2866" class="cls-2" width="43.078" height="1.207" transform="translate(1329.569 508.68)"/>
      <path id="Path_1451-2" data-name="Path 1451" class="cls-2" d="M18.711,197.594a4.538,4.538,0,1,1,4.538-4.538A4.539,4.539,0,0,1,18.711,197.594Z" transform="translate(1311.084 316.227)"/>
      <rect id="Rectangle_2867-2" data-name="Rectangle 2867" class="cls-2" width="54.844" height="1.207" transform="translate(1317.803 485.149)"/>
      <ellipse id="Ellipse_69-2" data-name="Ellipse 69" class="cls-2" cx="4.537" cy="4.537" rx="4.537" ry="4.537" transform="translate(1313.492 481.215)"/>
      <path id="Path_1460-2" data-name="Path 1460" class="cls-2" d="M28.8,61.291a4.538,4.538,0,1,0-4.538-4.538A4.537,4.537,0,0,0,28.8,61.291Z" transform="translate(1276.636 123.539)"/>
      <path id="Path_1465-2" data-name="Path 1465" class="cls-2" d="M26.365,135.219a4.538,4.538,0,1,0-4.538-4.538A4.539,4.539,0,0,0,26.365,135.219Z" transform="translate(1284.956 228.049)"/>
    </g>
  </g>
</svg>
