<svg id="Layer_1" data-name="Layer 1" xmlns="http://www.w3.org/2000/svg" viewBox="0 0 417.9934 349.6204">
  <g>
    <g id="type">
      <path id="type_PathItem_" data-name="type &lt;PathItem&gt;" d="M19.4741,240.619a5.2991,5.2991,0,1,1,0,10.5982H.794v14.176h18.68a19.4751,19.4751,0,1,0,0-38.95,5.2991,5.2991,0,1,1,0-10.5982h18.68V201.6689h-18.68a19.4751,19.4751,0,0,0,0,38.95Z" style="fill: #fff"/>
      <path id="type_PathItem_2" data-name="type &lt;PathItem&gt;" d="M80.8174,265.2608a19.5061,19.5061,0,0,0,19.4741-19.475V201.6689H86.1165v44.1169a5.2991,5.2991,0,1,1-10.5982,0V201.6689H61.3413v44.1169A19.5078,19.5078,0,0,0,80.8174,265.2608Z" style="fill: #fff"/>
      <polygon id="type_PathItem_3" data-name="type &lt;PathItem&gt;" points="123.741 238.632 123.741 265.261 142.82 265.261 123.741 238.632" style="fill: #fff"/>
      <path id="type_PathItem_4" data-name="type &lt;PathItem&gt;" d="M166.6672,217.6994a19.5848,19.5848,0,0,0-19.2113-16.03H123.7413v14.1759h23.7146a5.2991,5.2991,0,1,1,0,10.5982H123.7413l27.69,38.8178h17.3549L150.9,240.221A19.4091,19.4091,0,0,0,166.6672,217.6994Z" style="fill: #fff"/>
      <path id="type_PathItem_5" data-name="type &lt;PathItem&gt;" d="M185.7463,233.4653a31.7205,31.7205,0,0,0,31.7964,31.7955h19.7407V226.443H212.5083v14.176h10.5982v10.5982H217.41a17.7524,17.7524,0,0,1,0-35.5047l.1323.1323h19.7407V201.6689H217.5427A31.7207,31.7207,0,0,0,185.7463,233.4653Z" style="fill: #fff"/>
      <rect id="type_PathItem_6" data-name="type &lt;PathItem&gt;" x="264.0474" y="201.6689" width="14.175" height="63.592" style="fill: #fff"/>
      <polygon id="type_PathItem_7" data-name="type &lt;PathItem&gt;" points="316.244 233.465 330.419 265.261 344.596 265.261 344.596 201.669 330.419 201.669 330.419 233.465 316.244 201.669 302.069 201.669 302.069 265.261 316.244 265.261 316.244 233.465" style="fill: #fff"/>
      <path id="type_PathItem_8" data-name="type &lt;PathItem&gt;" d="M398.12,215.7125l.1324.1323h19.7407V201.6689H398.2527a31.796,31.796,0,1,0,0,63.5919h19.7407V226.443H393.2182v14.176h10.5982v10.5982H398.12a17.7524,17.7524,0,0,1,0-35.5047Z" style="fill: #fff"/>
      <path id="type_PathItem_9" data-name="type &lt;PathItem&gt;" d="M346.2106,307.704a30.7386,30.7386,0,0,1,7.7267,15.275h22.14l15.2749-15.275Z" style="fill: #fff"/>
      <path id="type_PathItem_10" data-name="type &lt;PathItem&gt;" d="M353.948,334.3455a30.7414,30.7414,0,0,1-7.7257,15.2749h3.2132l15.275-15.2749Z" style="fill: #fff"/>
      <path id="type_PathItem_11" data-name="type &lt;PathItem&gt;" d="M96.4455,286.0517l-.1424-.1425a20.5251,20.5251,0,0,0-13.2567-4.8467H0l15.275,15.275,67.7714-.0229a5.701,5.701,0,1,1,0,11.4019l-56.4049-.0125,15.2749,15.275,41.13-.0125a5.702,5.702,0,1,1,0,11.4039l-29.7635-.0249L68.5578,349.62H83.0464a20.9856,20.9856,0,0,0,20.9529-20.951,20.5251,20.5251,0,0,0-4.8467-13.2567A20.8254,20.8254,0,0,0,96.4455,286.0517Z" style="fill: #fff"/>
      <path id="type_PathItem_12" data-name="type &lt;PathItem&gt;" d="M149.3241,328.5271a5.701,5.701,0,0,1-11.4019,0V281.0625H122.67v47.4646a20.952,20.952,0,0,0,41.9039,0V281.0625h-15.25Z" style="fill: #fff"/>
      <polygon id="type_PathItem_13" data-name="type &lt;PathItem&gt;" points="205.339 281.063 190.089 281.063 190.089 349.478 224.295 349.478 224.295 334.228 205.339 334.228 205.339 281.063" style="fill: #fff"/>
      <polygon id="type_PathItem_14" data-name="type &lt;PathItem&gt;" points="262.355 281.063 247.105 281.063 247.105 349.478 281.31 349.478 281.31 334.228 262.355 334.228 262.355 281.063" style="fill: #fff"/>
      <path id="type_PathItem_15" data-name="type &lt;PathItem&gt;" d="M323.6434,281.0625a20.952,20.952,0,0,0,0,41.904,5.702,5.702,0,0,1,0,11.4039H303.5466v15.25h20.0968a20.952,20.952,0,1,0,0-41.9039,5.701,5.701,0,1,1,0-11.4019l79.075.0229,15.275-15.275Z" style="fill: #fff"/>
    </g>
    <g id="logoMark">
      <path id="logoMark_PathItem_" data-name="logoMark &lt;PathItem&gt;" d="M266.5018,128.4611,253.905,145.0686c-2.0627,2.7192-3.4744,8.9319-2.7968,12.3117.1208.5965.2039,1.206.2719,1.8175l.3807,2.9436c17.356-11.6462,28.83-30.1934,29.6224-51.2339a32.9547,32.9547,0,0,1-9.1894,4.617A30.1153,30.1153,0,0,1,266.5018,128.4611Z" style="fill: #fff"/>
      <path id="logoMark_PathItem_2" data-name="logoMark &lt;PathItem&gt;" d="M164.09,145.0686l-12.6009-16.6092a30.1549,30.1549,0,0,1-5.69-12.9339,32.95,32.95,0,0,1-9.19-4.6174c.7893,20.9483,12.1639,39.4283,29.3928,51.0837l.8842-4.6926C167.5382,153.8456,166.153,147.7878,164.09,145.0686Z" style="fill: #fff"/>
      <path id="logoMark_PathItem_3" data-name="logoMark &lt;PathItem&gt;" d="M179.3929,65.2947a62.5608,62.5608,0,0,1,59.2081,0c9.2176-1.4221,13.625-4.5841,15.7592-8.44a77.6267,77.6267,0,0,0-90.7273,0C165.7672,60.71,170.1748,63.8721,179.3929,65.2947Z" style="fill: #fff"/>
      <path id="logoMark_CompoundPathItem_" data-name="logoMark &lt;CompoundPathItem&gt;" d="M281.2538,97.3923A23.11,23.11,0,0,0,269.3,88.5394a47.0219,47.0219,0,0,0,10.2729-19.048,49.0572,49.0572,0,0,0,1.6392-10.7788,51.6836,51.6836,0,0,0-.2366-7.4242,56.787,56.787,0,0,0-5.3536-18.6716q-1.0638-2.22-2.2751-4.3255a73.4368,73.4368,0,0,0-5.3547-8.02q-1.4589-1.9093-3.0238-3.7338A117.6025,117.6025,0,0,0,254.8435,6.2015q-1.7911-1.6344-3.6327-3.2233a11.3316,11.3316,0,0,0-2.7146-1.6341C247.5117.8914,246.4855.4873,245.5309,0q-.3152.4931-.63.986c1.8566,2.1414,3.7849,4.23,5.67,6.3494s3.7272,4.2721,5.4111,6.5414a52.6582,52.6582,0,0,1,3.9886,6.2369,50.2771,50.2771,0,0,1,3.7474,8.7886q.3592,1.13.665,2.2744a56.6668,56.6668,0,0,1,1.6131,19.1448c-.4987,6.3747-2.5647,11.8526-6.7256,16.0753a25.75,25.75,0,0,1-7.8779,5.3476,37.4068,37.4068,0,0,1-5.2409,1.8837,51.4112,51.4112,0,0,1-6.1748,1.3122,29.2363,29.2363,0,0,1-4.2819.31c-4.3273.0191-8.7687-.7011-13.1233-.9641q-1.0288-.062-2.0177-.0379a15.8019,15.8019,0,0,0-11.5569,4.84,15.8011,15.8011,0,0,0-11.5566-4.84q-.9885-.0246-2.0175.0379c-2.9032.1753-5.845.5538-8.7656.781-.73.0568-1.459.1043-2.1858.1367s-1.4509.05-2.1722.0464-1.4393-.0267-2.1533-.0767-1.4239-.1255-2.1286-.2331a47.3884,47.3884,0,0,1-8.9088-2.1848,30.381,30.381,0,0,1-6.8634-3.4328,23.552,23.552,0,0,1-3.5216-2.9259c-4.1607-4.2227-6.2267-9.7006-6.7254-16.0753a56.6592,56.6592,0,0,1,1.6131-19.1448q.3059-1.1445.6651-2.2744a50.2766,50.2766,0,0,1,3.7473-8.7886,52.6564,52.6564,0,0,1,3.9884-6.2369c2.5259-3.404,5.4077-6.544,8.2571-9.7079.95-1.0546,1.8958-2.1122,2.8242-3.1829q-.3152-.4929-.63-.986c-.9543.4873-1.9808.8914-2.9653,1.3441a11.3232,11.3232,0,0,0-2.7145,1.6341c-2.4526,2.1207-4.85,4.2932-7.1552,6.5444q-1.7289,1.6881-3.3839,3.4386a81.6442,81.6442,0,0,0-11.5965,15.33q-1.209,2.1067-2.2752,4.3255a55.2328,55.2328,0,0,0-5.59,26.0958,47.58,47.58,0,0,0,9.5648,26.9668q1.1107,1.4669,2.347,2.86a23.1085,23.1085,0,0,0-11.954,8.8529,23.0157,23.0157,0,0,0,18.5332,9.9244q-.1406,1.01-.1806,2.0224t.0189,2.0186a20.5813,20.5813,0,0,0,.6241,3.9667q.2525.9727.6,1.9194a20.5062,20.5062,0,0,0,2.914,5.3291l12.6,16.61c3.7628,4.96,5.81,14.0094,4.5848,20.1136-.0361.1795-.0641,1.0968-.0878,2.1968a8.8778,8.8778,0,0,0,3.4259,7.1976l18.7837,14.6224,2.1626.08.3345.6015,7.9432-.2946,7.9437.2946.4828-.607,2.0143-.0746,18.7835-14.6224a8.88,8.88,0,0,0,3.426-7.1976c-.0241-1.1-.0521-2.0173-.0881-2.1968-1.2251-6.1042.8223-15.1537,4.5851-20.1136l12.6-16.61a20.544,20.544,0,0,0,4.1378-11.2152q.0585-1.0059.0186-2.0186t-.1806-2.0224A23.0162,23.0162,0,0,0,281.2538,97.3923Zm-40.8176,2.9587a3.1842,3.1842,0,0,1,4.2425,1.2255c1.9371,3.4042,4.1585,9.8414-1.6106,16.0108-3.9036,4.1747-6.8877,7.1821-8.9608,9.203a3.2036,3.2036,0,0,1-5.3373-1.4715C227.0893,118.9457,226.5878,107.6525,240.4362,100.351Zm-67.1721,1.2255a3.184,3.184,0,0,1,4.2422-1.2255c13.8489,7.3015,13.3474,18.5947,11.6665,24.9678a3.2037,3.2037,0,0,1-5.3374,1.4715c-2.0732-2.0209-5.057-5.0283-8.961-9.203C169.1053,111.4179,171.3269,104.9807,173.2641,101.5765Z" style="fill: #fff"/>
    </g>
  </g>
</svg>
