<svg xmlns="http://www.w3.org/2000/svg" xmlns:xlink="http://www.w3.org/1999/xlink" width="314" height="314" viewBox="0 0 314 314">
  <defs>
    <filter id="Path_209" x="144.133" y="134.271" width="154.39" height="177.869" filterUnits="userSpaceOnUse">
      <feOffset dy="16" input="SourceAlpha"/>
      <feGaussianBlur stdDeviation="20" result="blur"/>
      <feFlood flood-color="#19d1ce" flood-opacity="0.404"/>
      <feComposite operator="in" in2="blur"/>
      <feComposite in="SourceGraphic"/>
    </filter>
    <filter id="Path_210" x="15" y="134.272" width="154.381" height="177.7" filterUnits="userSpaceOnUse">
      <feOffset dy="16" input="SourceAlpha"/>
      <feGaussianBlur stdDeviation="20" result="blur-2"/>
      <feFlood flood-color="#19d1ce" flood-opacity="0.404"/>
      <feComposite operator="in" in2="blur-2"/>
      <feComposite in="SourceGraphic"/>
    </filter>
    <filter id="Path_211" x="45.522" y="56.689" width="222.477" height="146.062" filterUnits="userSpaceOnUse">
      <feOffset dy="16" input="SourceAlpha"/>
      <feGaussianBlur stdDeviation="20" result="blur-3"/>
      <feFlood flood-color="#19d1ce" flood-opacity="0.404"/>
      <feComposite operator="in" in2="blur-3"/>
      <feComposite in="SourceGraphic"/>
    </filter>
    <filter id="Path_212" x="15.147" y="9" width="283.229" height="327.823" filterUnits="userSpaceOnUse">
      <feOffset dy="16" input="SourceAlpha"/>
      <feGaussianBlur stdDeviation="20" result="blur-4"/>
      <feFlood flood-color="#19d1ce" flood-opacity="0.404"/>
      <feComposite operator="in" in2="blur-4"/>
      <feComposite in="SourceGraphic"/>
    </filter>
    <clipPath id="clip-Surging-Bulls-Logo">
      <rect width="314" height="314"/>
    </clipPath>
  </defs>
  <g id="Surging-Bulls-Logo" clip-path="url(#clip-Surging-Bulls-Logo)">
    <g id="Group_10813" data-name="Group 10813" transform="translate(75 53)">
      <g transform="matrix(1, 0, 0, 1, -75, -53)" filter="url(#Path_209)">
        <path id="Path_209-2" data-name="Path 209" d="M599.581,603.924l-14.229,18.758c-2.33,3.072-3.924,10.089-3.159,13.906.137.674.23,1.362.307,2.053l.43,3.324c19.6-13.154,32.564-34.1,33.458-57.869a37.2,37.2,0,0,1-10.379,5.215A34.025,34.025,0,0,1,599.581,603.924Z" transform="translate(-377.87 -405.83)" fill="#fff"/>
      </g>
      <g transform="matrix(1, 0, 0, 1, -75, -53)" filter="url(#Path_210)">
        <path id="Path_210-2" data-name="Path 210" d="M498.712,622.682l-14.233-18.76a34.064,34.064,0,0,1-6.426-14.609,37.212,37.212,0,0,1-10.38-5.215c.891,23.661,13.739,44.534,33.2,57.7l1-5.3C502.607,632.6,501.042,625.754,498.712,622.682Z" transform="translate(-392.67 -405.83)" fill="#fff"/>
      </g>
      <g transform="matrix(1, 0, 0, 1, -75, -53)" filter="url(#Path_211)">
        <path id="Path_211-2" data-name="Path 211" d="M512.5,541.473a70.66,70.66,0,0,1,66.876,0c10.412-1.607,15.39-5.179,17.8-9.533a87.681,87.681,0,0,0-102.477,0C497.106,536.294,502.085,539.866,512.5,541.473Z" transform="translate(-389.17 -414.72)" fill="#fff"/>
      </g>
      <g transform="matrix(1, 0, 0, 1, -75, -53)" filter="url(#Path_212)">
        <path id="Path_212-2" data-name="Path 212" d="M631.033,583.2a26.1,26.1,0,0,0-13.5-10,53.095,53.095,0,0,0,11.6-21.515,55.427,55.427,0,0,0,1.852-12.175,58.522,58.522,0,0,0-.268-8.385,64.132,64.132,0,0,0-6.047-21.089q-1.2-2.509-2.57-4.886a82.99,82.99,0,0,0-6.047-9.059q-1.649-2.157-3.416-4.216A132.713,132.713,0,0,0,601.2,480.194q-2.023-1.845-4.1-3.64a12.794,12.794,0,0,0-3.067-1.846c-1.111-.512-2.272-.968-3.349-1.518l-.712,1.114c2.1,2.418,4.274,4.777,6.4,7.171s4.21,4.825,6.112,7.389a59.453,59.453,0,0,1,4.5,7.044,56.789,56.789,0,0,1,4.233,9.927q.405,1.276.751,2.569a64.017,64.017,0,0,1,1.822,21.625c-.564,7.2-2.9,13.388-7.6,18.158a29.083,29.083,0,0,1-8.9,6.039,42.239,42.239,0,0,1-5.92,2.128,58.108,58.108,0,0,1-6.974,1.482,32.977,32.977,0,0,1-4.837.35c-4.887.021-9.9-.792-14.824-1.089q-1.161-.071-2.278-.043a17.849,17.849,0,0,0-13.054,5.467,17.85,17.85,0,0,0-13.054-5.467q-1.116-.027-2.278.043c-3.279.2-6.6.626-9.9.882-.825.064-1.648.117-2.469.155s-1.639.055-2.453.052-1.625-.03-2.432-.087-1.608-.141-2.4-.263a53.458,53.458,0,0,1-10.062-2.468,34.284,34.284,0,0,1-7.753-3.878,26.669,26.669,0,0,1-3.978-3.3c-4.7-4.77-7.032-10.957-7.6-18.158a63.99,63.99,0,0,1,1.822-21.625q.346-1.293.751-2.569a56.79,56.79,0,0,1,4.233-9.927,59.445,59.445,0,0,1,4.5-7.044c2.853-3.845,6.108-7.391,9.326-10.965,1.073-1.192,2.142-2.387,3.19-3.6l-.712-1.114c-1.078.55-2.238,1.006-3.349,1.518a12.771,12.771,0,0,0-3.067,1.846c-2.77,2.4-5.478,4.849-8.082,7.392q-1.952,1.908-3.822,3.884a92.189,92.189,0,0,0-13.1,17.315q-1.366,2.38-2.571,4.886a62.4,62.4,0,0,0-6.314,29.475,53.744,53.744,0,0,0,10.8,30.46q1.255,1.657,2.651,3.23a26.1,26.1,0,0,0-13.5,10,26,26,0,0,0,20.933,11.21q-.157,1.14-.2,2.284c-.031.761-.023,1.523.021,2.279a23.172,23.172,0,0,0,.7,4.481q.285,1.1.678,2.169a23.145,23.145,0,0,0,3.291,6.019L507.46,630.4c4.25,5.6,6.562,15.824,5.179,22.719-.041.2-.072,1.239-.1,2.481a10.026,10.026,0,0,0,3.87,8.129l21.217,16.517,2.442.09.378.679,8.972-.332,8.973.332.544-.686,2.276-.084,21.216-16.517a10.03,10.03,0,0,0,3.87-8.129c-.027-1.242-.059-2.279-.1-2.481-1.384-6.894.929-17.117,5.179-22.719l14.233-18.76a23.2,23.2,0,0,0,4.673-12.669c.044-.757.052-1.518.021-2.279s-.1-1.524-.2-2.284A26,26,0,0,0,631.033,583.2Zm-46.1,3.342a3.6,3.6,0,0,1,4.792,1.384c2.188,3.846,4.7,11.117-1.82,18.085-4.408,4.716-7.78,8.112-10.121,10.395a3.618,3.618,0,0,1-6.028-1.662C569.853,607.54,569.287,594.784,584.929,586.537Zm-75.871,1.384a3.6,3.6,0,0,1,4.791-1.384c15.643,8.247,15.077,21,13.178,28.2A3.619,3.619,0,0,1,521,616.4c-2.341-2.283-5.712-5.679-10.122-10.395C504.36,599.038,506.869,591.767,509.057,587.921Z" transform="translate(-392.66 -420.19)" fill="#fff"/>
      </g>
    </g>
  </g>
</svg>
