<?xml version="1.0" encoding="UTF-8"?>
<!DOCTYPE svg PUBLIC "-//W3C//DTD SVG 1.1//EN" "http://www.w3.org/Graphics/SVG/1.1/DTD/svg11.dtd">
<svg xmlns="http://www.w3.org/2000/svg" version="1.1" width="418px" height="350px" style="shape-rendering:geometricPrecision; text-rendering:geometricPrecision; image-rendering:optimizeQuality; fill-rule:evenodd; clip-rule:evenodd" xmlns:xlink="http://www.w3.org/1999/xlink">
<g><path style="opacity:1" fill="#060606" d="M 169.5,-0.5 C 170.5,-0.5 171.5,-0.5 172.5,-0.5C 172.611,0.117425 172.944,0.617425 173.5,1C 155.593,16.3877 149.093,35.5544 154,58.5C 160.382,69.5294 170.049,74.8628 183,74.5C 189.155,73.6159 195.322,73.4493 201.5,74C 204.112,74.6395 206.446,75.8062 208.5,77.5C 210.554,75.8062 212.888,74.6395 215.5,74C 221.678,73.4493 227.845,73.6159 234,74.5C 253.61,74.22 264.11,64.3866 265.5,45C 264.288,27.2434 256.955,12.5767 243.5,1C 244.056,0.617425 244.389,0.117425 244.5,-0.5C 245.5,-0.5 246.5,-0.5 247.5,-0.5C 261.929,10.1022 272.429,23.7689 279,40.5C 283.942,58.0305 280.775,73.8638 269.5,88C 274.375,89.8804 278.375,92.8804 281.5,97C 276.949,103.611 270.616,107.111 262.5,107.5C 263.174,112.947 262.008,117.947 259,122.5C 252.092,130.398 246.425,139.064 242,148.5C 241.667,153.833 241.333,159.167 241,164.5C 240.333,165.833 239.667,167.167 239,168.5C 232.833,173.333 226.667,178.167 220.5,183C 218.577,183.808 216.577,184.308 214.5,184.5C 208.453,184.348 202.453,183.848 196.5,183C 190.167,177.833 183.833,172.667 177.5,167.5C 176.204,159.161 174.704,150.827 173,142.5C 166.507,134.182 160.507,125.515 155,116.5C 154.502,113.518 154.335,110.518 154.5,107.5C 146.384,107.111 140.051,103.611 135.5,97C 138.625,92.8804 142.625,89.8804 147.5,88C 134.866,71.6858 132.366,53.8524 140,34.5C 146.781,20.2227 156.614,8.55603 169.5,-0.5 Z M 173.5,100.5 C 186.353,104.366 191.02,112.866 187.5,126C 186.167,126.667 184.833,126.667 183.5,126C 179.631,122.466 176.131,118.633 173,114.5C 171.009,109.761 171.175,105.094 173.5,100.5 Z M 239.5,100.5 C 242.48,100.241 244.313,101.574 245,104.5C 245.667,107.167 245.667,109.833 245,112.5C 241.917,117.588 238.083,122.088 233.5,126C 232.167,126.667 230.833,126.667 229.5,126C 227.271,120.12 227.771,114.287 231,108.5C 233.729,105.601 236.562,102.934 239.5,100.5 Z"/></g>
<g><path style="opacity:1" fill="#090909" d="M 199.5,41.5 C 219.757,39.8122 238.09,44.8122 254.5,56.5C 250.679,62.0796 245.346,65.0796 238.5,65.5C 218.5,56.1667 198.5,56.1667 178.5,65.5C 172.17,65.0066 167.003,62.3399 163,57.5C 162.312,56.6683 162.479,56.0016 163.5,55.5C 174.495,47.9933 186.495,43.3267 199.5,41.5 Z"/></g>
<g><path style="opacity:1" fill="#0e0e0e" d="M 166.5,160.5 C 165.833,160.833 165.167,161.167 164.5,161.5C 146.494,149.147 137.161,132.147 136.5,110.5C 139.746,112.039 142.912,113.706 146,115.5C 146.774,119.049 148.107,122.382 150,125.5C 155,132.167 160,138.833 165,145.5C 167.024,150.42 167.524,155.42 166.5,160.5 Z"/></g>
<g><path style="opacity:1" fill="#0d0d0d" d="M 252.5,161.5 C 251.833,161.167 251.167,160.833 250.5,160.5C 249.476,155.42 249.976,150.42 252,145.5C 257,138.833 262,132.167 267,125.5C 268.893,122.382 270.226,119.049 271,115.5C 274.088,113.706 277.254,112.039 280.5,110.5C 279.824,132.181 270.491,149.181 252.5,161.5 Z"/></g>
<g><path style="opacity:0.051" fill="#fefffe" d="M 166.5,160.5 C 166.289,162.424 165.623,162.757 164.5,161.5C 165.167,161.167 165.833,160.833 166.5,160.5 Z"/></g>
<g><path style="opacity:0.144" fill="#fefffe" d="M 250.5,160.5 C 251.167,160.833 251.833,161.167 252.5,161.5C 251.377,162.757 250.711,162.424 250.5,160.5 Z"/></g>
<g><path style="opacity:0.353" fill="#4e4e4e" d="M 16.5,201.5 C 23.6476,200.508 30.9809,200.175 38.5,200.5C 38.5,205.833 38.5,211.167 38.5,216.5C 31.1667,216.5 23.8333,216.5 16.5,216.5C 23.3134,215.509 30.3134,215.175 37.5,215.5C 37.5,210.833 37.5,206.167 37.5,201.5C 30.5,201.5 23.5,201.5 16.5,201.5 Z"/></g>
<g><path style="opacity:0.353" fill="#4c4c4c" d="M 149.5,201.5 C 140.833,201.5 132.167,201.5 123.5,201.5C 123.5,206.167 123.5,210.833 123.5,215.5C 132.017,215.174 140.35,215.507 148.5,216.5C 139.833,216.5 131.167,216.5 122.5,216.5C 122.5,211.167 122.5,205.833 122.5,200.5C 131.682,200.173 140.682,200.507 149.5,201.5 Z"/></g>
<g><path style="opacity:0.353" fill="#4b4b4b" d="M 214.5,201.5 C 221.982,200.508 229.648,200.175 237.5,200.5C 237.5,205.833 237.5,211.167 237.5,216.5C 230.313,216.825 223.313,216.491 216.5,215.5C 223.167,215.5 229.833,215.5 236.5,215.5C 236.5,210.833 236.5,206.167 236.5,201.5C 229.167,201.5 221.833,201.5 214.5,201.5 Z"/></g>
<g><path style="opacity:1" fill="#070707" d="M 16.5,201.5 C 23.5,201.5 30.5,201.5 37.5,201.5C 37.5,206.167 37.5,210.833 37.5,215.5C 30.3134,215.175 23.3134,215.509 16.5,216.5C 13.8987,219.337 13.8987,222.17 16.5,225C 33.5935,226.731 40.7602,235.898 38,252.5C 36.2116,257.92 32.7116,261.753 27.5,264C 18.2338,265.386 8.90046,265.886 -0.5,265.5C -0.5,260.5 -0.5,255.5 -0.5,250.5C 6.50793,250.666 13.5079,250.5 20.5,250C 23.9166,247.679 24.2499,245.012 21.5,242C 11.2904,241.253 3.95708,236.42 -0.5,227.5C -0.5,223.167 -0.5,218.833 -0.5,214.5C 2.54005,206.8 8.20672,202.466 16.5,201.5 Z"/></g>
<g><path style="opacity:1" fill="#060606" d="M 85.5,201.5 C 90.1667,201.5 94.8333,201.5 99.5,201.5C 99.5,217.167 99.5,232.833 99.5,248.5C 98.9059,255.857 95.2392,261.024 88.5,264C 75.1177,267.892 65.9511,263.392 61,250.5C 60.5001,233.837 60.3334,217.17 60.5,200.5C 65.5,200.5 70.5,200.5 75.5,200.5C 75.3334,216.17 75.5001,231.837 76,247.5C 79.4905,251.588 82.4905,251.255 85,246.5C 85.4999,231.504 85.6666,216.504 85.5,201.5 Z"/></g>
<g><path style="opacity:0.655" fill="#3d3d3d" d="M 85.5,201.5 C 90.3054,200.513 95.3054,200.179 100.5,200.5C 100.83,216.675 100.496,232.675 99.5,248.5C 99.5,232.833 99.5,217.167 99.5,201.5C 94.8333,201.5 90.1667,201.5 85.5,201.5 Z"/></g>
<g><path style="opacity:1" fill="#090909" d="M 149.5,201.5 C 157.747,202.237 163.247,206.571 166,214.5C 168.583,227.507 163.75,236.34 151.5,241C 157.36,248.694 163.027,256.527 168.5,264.5C 162.528,265.664 156.528,265.83 150.5,265C 140.779,252.279 131.446,239.279 122.5,226C 131.167,225.667 139.833,225.333 148.5,225C 152.45,222.221 152.45,219.387 148.5,216.5C 140.35,215.507 132.017,215.174 123.5,215.5C 123.5,210.833 123.5,206.167 123.5,201.5C 132.167,201.5 140.833,201.5 149.5,201.5 Z"/></g>
<g><path style="opacity:1" fill="#040404" d="M 214.5,201.5 C 221.833,201.5 229.167,201.5 236.5,201.5C 236.5,206.167 236.5,210.833 236.5,215.5C 229.833,215.5 223.167,215.5 216.5,215.5C 200.988,219.524 196.488,228.857 203,243.5C 208.285,249.096 214.785,251.429 222.5,250.5C 222.5,247.167 222.5,243.833 222.5,240.5C 219.167,240.5 215.833,240.5 212.5,240.5C 212.5,235.833 212.5,231.167 212.5,226.5C 220.5,226.5 228.5,226.5 236.5,226.5C 236.5,239.167 236.5,251.833 236.5,264.5C 228.167,264.5 219.833,264.5 211.5,264.5C 198.846,262.015 190.346,254.682 186,242.5C 182.183,226.613 187.016,214.113 200.5,205C 204.896,202.701 209.562,201.534 214.5,201.5 Z"/></g>
<g><path style="opacity:1" fill="#000000" d="M 263.5,201.5 C 268.167,201.5 272.833,201.5 277.5,201.5C 277.5,222.5 277.5,243.5 277.5,264.5C 272.833,264.5 268.167,264.5 263.5,264.5C 263.5,243.5 263.5,222.5 263.5,201.5 Z"/></g>
<g><path style="opacity:0.545" fill="#3f3f3f" d="M 263.5,201.5 C 268.305,200.513 273.305,200.179 278.5,200.5C 278.5,222.167 278.5,243.833 278.5,265.5C 273.305,265.821 268.305,265.487 263.5,264.5C 268.167,264.5 272.833,264.5 277.5,264.5C 277.5,243.5 277.5,222.5 277.5,201.5C 272.833,201.5 268.167,201.5 263.5,201.5 Z"/></g>
<g><path style="opacity:1" fill="#040404" d="M 317.5,237.5 C 317.539,236.244 317.039,235.244 316,234.5C 315.5,244.494 315.334,254.494 315.5,264.5C 310.833,264.5 306.167,264.5 301.5,264.5C 301.5,243.167 301.5,221.833 301.5,200.5C 306.544,200.173 311.544,200.506 316.5,201.5C 320.57,210.875 324.736,220.208 329,229.5C 329.5,219.839 329.666,210.172 329.5,200.5C 334.5,200.5 339.5,200.5 344.5,200.5C 344.5,222.167 344.5,243.833 344.5,265.5C 339.238,265.805 334.072,265.471 329,264.5C 325.063,255.517 321.23,246.517 317.5,237.5 Z"/></g>
<g><path style="opacity:1" fill="#090909" d="M 417.5,200.5 C 417.5,205.833 417.5,211.167 417.5,216.5C 410.578,216.812 403.744,216.479 397,215.5C 386.829,217.173 381.329,223.173 380.5,233.5C 382.514,245.831 389.848,251.498 402.5,250.5C 402.5,247.167 402.5,243.833 402.5,240.5C 399.167,240.5 395.833,240.5 392.5,240.5C 392.5,235.5 392.5,230.5 392.5,225.5C 400.833,225.5 409.167,225.5 417.5,225.5C 417.5,238.833 417.5,252.167 417.5,265.5C 409.16,265.666 400.827,265.5 392.5,265C 372.658,259.814 363.825,246.981 366,226.5C 370.279,211.553 380.113,203.053 395.5,201C 402.826,200.5 410.159,200.334 417.5,200.5 Z"/></g>
<g><path style="opacity:0.651" fill="#373737" d="M 211.5,264.5 C 219.833,264.5 228.167,264.5 236.5,264.5C 236.5,251.833 236.5,239.167 236.5,226.5C 228.5,226.5 220.5,226.5 212.5,226.5C 212.5,231.167 212.5,235.833 212.5,240.5C 211.513,235.695 211.179,230.695 211.5,225.5C 220.167,225.5 228.833,225.5 237.5,225.5C 237.5,238.833 237.5,252.167 237.5,265.5C 228.651,265.826 219.984,265.493 211.5,264.5 Z"/></g>
<g><path style="opacity:0.59" fill="#3a3a3a" d="M 317.5,237.5 C 316.506,246.652 316.173,255.985 316.5,265.5C 311.305,265.821 306.305,265.487 301.5,264.5C 306.167,264.5 310.833,264.5 315.5,264.5C 315.334,254.494 315.5,244.494 316,234.5C 317.039,235.244 317.539,236.244 317.5,237.5 Z"/></g>
<g><path style="opacity:1" fill="#090909" d="M 123.5,238.5 C 130.31,246.774 136.644,255.441 142.5,264.5C 136.167,264.5 129.833,264.5 123.5,264.5C 123.5,255.833 123.5,247.167 123.5,238.5 Z"/></g>
<g><path style="opacity:0.859" fill="#3b3b3b" d="M 123.5,238.5 C 123.5,247.167 123.5,255.833 123.5,264.5C 129.833,264.5 136.167,264.5 142.5,264.5C 136.021,265.491 129.354,265.824 122.5,265.5C 122.168,255.748 122.501,246.748 123.5,238.5 Z"/></g>
<g><path style="opacity:0.407" fill="#fefffe" d="M -0.5,280.5 C 0.166667,280.5 0.833333,280.5 1.5,280.5C 1.16667,281.167 0.833333,281.833 0.5,282.5C 0.166667,282.5 -0.166667,282.5 -0.5,282.5C -0.5,281.833 -0.5,281.167 -0.5,280.5 Z"/></g>
<g><path style="opacity:0.407" fill="#fefffe" d="M 415.5,280.5 C 416.167,280.5 416.833,280.5 417.5,280.5C 417.5,281.167 417.5,281.833 417.5,282.5C 417.167,282.5 416.833,282.5 416.5,282.5C 416.167,281.833 415.833,281.167 415.5,280.5 Z"/></g>
<g><path style="opacity:1" fill="#080808" d="M 1.5,280.5 C 30.5019,280.333 59.5019,280.5 88.5,281C 101.045,285.918 105.879,295.085 103,308.5C 101.961,310.746 100.794,312.913 99.5,315C 107.884,330.55 104.217,342.05 88.5,349.5C 81.1667,349.5 73.8333,349.5 66.5,349.5C 62.1667,344.833 57.8333,340.167 53.5,335.5C 53.8333,334.833 54.1667,334.167 54.5,333.5C 64.5056,333.666 74.5056,333.5 84.5,333C 87.9661,330.339 88.2994,327.339 85.5,324C 70.5,323.667 55.5,323.333 40.5,323C 35.6301,318.298 30.9634,313.465 26.5,308.5C 45.8333,307.833 65.1667,307.167 84.5,306.5C 88.4734,303.46 88.4734,300.294 84.5,297C 60.8333,296.667 37.1667,296.333 13.5,296C 8.96326,291.631 4.62993,287.131 0.5,282.5C 0.833333,281.833 1.16667,281.167 1.5,280.5 Z"/></g>
<g><path style="opacity:1" fill="#050505" d="M 148.5,349.5 C 144.833,349.5 141.167,349.5 137.5,349.5C 129.423,346.585 124.256,340.919 122,332.5C 121.5,315.17 121.333,297.837 121.5,280.5C 126.833,280.5 132.167,280.5 137.5,280.5C 137.333,296.503 137.5,312.503 138,328.5C 140.749,334.638 144.082,334.972 148,329.5C 148.5,313.17 148.667,296.837 148.5,280.5C 153.833,280.5 159.167,280.5 164.5,280.5C 164.667,298.17 164.5,315.836 164,333.5C 161.315,341.35 156.148,346.684 148.5,349.5 Z"/></g>
<g><path style="opacity:1" fill="#050505" d="M 224.5,349.5 C 212.833,349.5 201.167,349.5 189.5,349.5C 189.5,326.5 189.5,303.5 189.5,280.5C 194.833,280.5 200.167,280.5 205.5,280.5C 205.5,298.167 205.5,315.833 205.5,333.5C 211.833,333.5 218.167,333.5 224.5,333.5C 224.5,338.833 224.5,344.167 224.5,349.5 Z"/></g>
<g><path style="opacity:1" fill="#050505" d="M 281.5,349.5 C 269.833,349.5 258.167,349.5 246.5,349.5C 246.5,326.5 246.5,303.5 246.5,280.5C 251.833,280.5 257.167,280.5 262.5,280.5C 262.5,298.167 262.5,315.833 262.5,333.5C 268.833,333.5 275.167,333.5 281.5,333.5C 281.5,338.833 281.5,344.167 281.5,349.5 Z"/></g>
<g><path style="opacity:1" fill="#070707" d="M 415.5,280.5 C 415.833,281.167 416.167,281.833 416.5,282.5C 412.37,287.131 408.037,291.631 403.5,296C 375.414,296.016 347.414,296.683 319.5,298C 318.409,300.064 318.242,302.231 319,304.5C 324.864,306.406 330.697,308.573 336.5,311C 346.382,321.38 347.048,332.38 338.5,344C 335.737,346.374 332.737,348.208 329.5,349.5C 320.833,349.5 312.167,349.5 303.5,349.5C 303.5,344.5 303.5,339.5 303.5,334.5C 310.687,334.825 317.687,334.491 324.5,333.5C 329.067,330.672 329.4,327.506 325.5,324C 305.868,321.373 298.701,310.54 304,291.5C 307.043,286.123 311.543,282.623 317.5,281C 350.165,280.5 382.832,280.333 415.5,280.5 Z"/></g>
<g><path style="opacity:0.19" fill="#515151" d="M 84.5,306.5 C 65.1667,307.167 45.8333,307.833 26.5,308.5C 25.9569,308.44 25.6236,308.107 25.5,307.5C 45.1554,306.5 64.822,306.167 84.5,306.5 Z"/></g>
<g><path style="opacity:0.353" fill="#545454" d="M 390.5,308.5 C 375.833,307.167 361.167,307.167 346.5,308.5C 345.957,308.44 345.624,308.107 345.5,307.5C 360.833,306.167 376.167,306.167 391.5,307.5C 391.376,308.107 391.043,308.44 390.5,308.5 Z"/></g>
<g><path style="opacity:1" fill="#0b0b0b" d="M 390.5,308.5 C 386.167,313.5 381.5,318.167 376.5,322.5C 368.228,323.085 360.228,322.418 352.5,320.5C 351.027,316.221 349.027,312.221 346.5,308.5C 361.167,307.167 375.833,307.167 390.5,308.5 Z"/></g>
<g><path style="opacity:0.494" fill="#4c4c4c" d="M 352.5,320.5 C 360.228,322.418 368.228,323.085 376.5,322.5C 368.684,323.492 360.684,323.826 352.5,323.5C 352.5,322.5 352.5,321.5 352.5,320.5 Z"/></g>
<g><path style="opacity:0.242" fill="#fefffe" d="M 54.5,333.5 C 54.1667,334.167 53.8333,334.833 53.5,335.5C 52.2426,334.377 52.5759,333.711 54.5,333.5 Z"/></g>
<g><path style="opacity:0.243" fill="#fefffe" d="M 362.5,333.5 C 364.424,333.711 364.757,334.377 363.5,335.5C 363.167,334.833 362.833,334.167 362.5,333.5 Z"/></g>
<g><path style="opacity:0.843" fill="#333333" d="M 324.5,333.5 C 317.687,334.491 310.687,334.825 303.5,334.5C 303.5,339.5 303.5,344.5 303.5,349.5C 303.167,349.5 302.833,349.5 302.5,349.5C 302.5,344.167 302.5,338.833 302.5,333.5C 309.833,333.5 317.167,333.5 324.5,333.5 Z"/></g>
<g><path style="opacity:1" fill="#272727" d="M 362.5,333.5 C 362.833,334.167 363.167,334.833 363.5,335.5C 359.167,340.167 354.833,344.833 350.5,349.5C 349.5,349.5 348.5,349.5 347.5,349.5C 347.167,348.833 346.833,348.167 346.5,347.5C 350.13,343.569 352.13,338.903 352.5,333.5C 355.833,333.5 359.167,333.5 362.5,333.5 Z"/></g>
<g><path style="opacity:0.379" fill="#fefffe" d="M 346.5,347.5 C 346.833,348.167 347.167,348.833 347.5,349.5C 346.833,349.5 346.167,349.5 345.5,349.5C 345.328,348.508 345.662,347.842 346.5,347.5 Z"/></g>
</svg>
