<svg id="icon-root" xmlns="http://www.w3.org/2000/svg" width="96.465" height="37.645" viewBox="0 0 96.465 37.645">
  <path id="Path_1318" data-name="Path 1318" d="M18.822,37.645A18.822,18.822,0,1,0,0,18.822,18.822,18.822,0,0,0,18.822,37.645ZM16.47,23.528a7.058,7.058,0,1,1,7.058-7.058v16.47h4.706V28.234h4.706V23.528H28.234V16.47A11.764,11.764,0,1,0,16.47,28.234h4.706V23.528Z" fill="#fff"/>
  <path id="Path_1319" data-name="Path 1319" d="M165.175,50.824a11.764,11.764,0,1,1,0-14.119V32h4.706V55.528h-4.706Zm-2.353-7.06a7.058,7.058,0,1,1-7.058-7.058A7.058,7.058,0,0,1,162.822,43.764Z" transform="translate(-101.649 -22.589)" fill="#fff"/>
  <path id="Path_1320" data-name="Path 1320" d="M244.706,55.528H240V32h4.706v2.353a11.767,11.767,0,0,1,2.353-1.371l.2-.087a11.763,11.763,0,0,1,4.5-.9v4.7a7.061,7.061,0,0,0-7.058,6.845Z" transform="translate(-169.416 -22.589)" fill="#fff"/>
  <path id="Path_1321" data-name="Path 1321" d="M288,32V43.764a11.765,11.765,0,0,0,.9,4.5q.042.1.086.2a11.765,11.765,0,0,0,10.782,7.058v-4.7a7.061,7.061,0,0,1-7.062-7.062h0V41.411h7.058V36.706h-7.058V32Z" transform="translate(-203.299 -22.589)" fill="#fff"/>
</svg>
