<svg xmlns="http://www.w3.org/2000/svg" width="75.29" height="37.645" viewBox="0 0 75.29 37.645">
  <g id="digitaleyes" transform="translate(0)">
    <path id="Path_1331" data-name="Path 1331" d="M55.879,0H19.412C8.691,0,0,8.427,0,18.823S8.691,37.645,19.411,37.645H55.878c10.721,0,19.412-8.427,19.412-18.823S66.6,0,55.879,0Z" transform="translate(0)" fill="#fff"/>
    <path id="Path_1332" data-name="Path 1332" d="M54.426,33.982A16.1,16.1,0,0,0,70.761,18.139a16.342,16.342,0,0,0-32.67,0A16.1,16.1,0,0,0,54.426,33.982Zm-35.071,0A16.1,16.1,0,0,0,35.69,18.139,16.1,16.1,0,0,0,19.354,2.294,16.1,16.1,0,0,0,3.019,18.139,16.1,16.1,0,0,0,19.354,33.982Z" transform="translate(0.769 0.585)" fill="#4fbbeb" stroke="#010101" stroke-width="0.75"/>
    <path id="Path_1333" data-name="Path 1333" d="M53.692,29.767a12.537,12.537,0,0,0,12.724-12.34,12.729,12.729,0,0,0-25.446,0,12.537,12.537,0,0,0,12.723,12.34Zm-35.071,0a12.536,12.536,0,0,0,12.723-12.34A12.537,12.537,0,0,0,18.62,5.087,12.535,12.535,0,0,0,5.9,17.427a12.537,12.537,0,0,0,12.723,12.34Z" transform="translate(1.503 1.296)" fill="#fff" stroke="#010101" stroke-width="1.5"/>
    <path id="Path_1334" data-name="Path 1334" d="M20.795,22.52c2.118,0,3.837-2.522,3.837-5.634s-1.719-5.635-3.837-5.635-3.839,2.522-3.839,5.634S18.675,22.52,20.795,22.52Z" transform="translate(4.321 2.867)" fill="#010101"/>
    <path id="Path_1335" data-name="Path 1335" d="M21.1,17.4c.829,0,1.5-.988,1.5-2.207s-.674-2.206-1.5-2.206-1.5.988-1.5,2.206.674,2.207,1.5,2.207Z" transform="translate(4.993 3.309)" fill="#fff"/>
    <path id="Path_1336" data-name="Path 1336" d="M48.743,22.52c2.119,0,3.837-2.522,3.837-5.634s-1.719-5.635-3.837-5.635-3.837,2.522-3.837,5.634S46.625,22.52,48.743,22.52Z" transform="translate(11.444 2.867)" fill="#010101"/>
    <path id="Path_1337" data-name="Path 1337" d="M49.047,17.4c.831,0,1.5-.988,1.5-2.207s-.673-2.206-1.5-2.206-1.5.988-1.5,2.206.673,2.207,1.5,2.207Z" transform="translate(12.116 3.309)" fill="#fff"/>
  </g>
</svg>
