<svg id="_6141e3eab2b6909b53b3ccfe_FTX-US_Logo_black" data-name="6141e3eab2b6909b53b3ccfe_FTX-US_Logo_black" xmlns="http://www.w3.org/2000/svg" width="215.478" height="36.145" viewBox="0 0 215.478 36.145">
  <path id="Path_1322" data-name="Path 1322" d="M128.9,187.527h-9.558v9.558H128.9Z" transform="translate(-106.595 -161.539)" fill="#6cd0d9"/>
  <path id="Path_1323" data-name="Path 1323" d="M135.5,119.336H119.341v9.558h19.117v-9.558Z" transform="translate(-106.595 -106.093)" fill="#0ab5cc"/>
  <path id="Path_1324" data-name="Path 1324" d="M148.016,51.144H119.341V60.7h28.675Z" transform="translate(-106.595 -50.645)" fill="#1297b2"/>
  <path id="Path_1325" data-name="Path 1325" d="M60.7,119.336H51.144v9.558H60.7Z" transform="translate(-51.144 -106.093)" fill="#cc1423"/>
  <path id="Path_1326" data-name="Path 1326" d="M323.845,86.179h7.41V71.7h14.256v-6.11H331.255V57.239h15.8V51.13H323.845Z" transform="translate(-272.879 -50.633)" fill="#fff"/>
  <path id="Path_1327" data-name="Path 1327" d="M467.544,57.239h10.731v28.94H485.6V57.239H496.33V51.13H467.544Z" transform="translate(-389.722 -50.633)" fill="#fff"/>
  <path id="Path_1328" data-name="Path 1328" d="M646.659,51.13h-8.4l10.765,17.525-10.97,17.525h8.489l7.188-11.963H654l7.188,11.963h8.523L658.776,68.654l10.7-17.525H661.1L654,63.075h-.274Z" transform="translate(-528.363 -50.633)" fill="#fff"/>
  <path id="Path_1329" data-name="Path 1329" d="M914.607,51.13V74.114c0,5.579-3.97,9.652-10.08,9.652s-10.08-4.073-10.08-9.652V51.13h-3.2V74.336c-.017,7.154,5.391,12.442,13.281,12.442,7.906,0,13.281-5.288,13.281-12.442V51.13Z" transform="translate(-734.239 -50.633)" fill="#fff"/>
  <path id="Path_1330" data-name="Path 1330" d="M1095.242,57.733h3.1c-.239-5.322-4.844-9.259-11.363-9.259-6.47,0-11.451,3.885-11.451,9.533,0,4.5,3.185,7.325,8.677,8.951l4.194,1.232c4.347,1.266,7.324,2.892,7.324,6.469,0,4.21-3.816,7.034-9.053,7.034-4.725,0-8.421-2.276-8.763-6.435h-3.286c.376,5.545,4.895,9.361,12.049,9.361,7.6,0,12.15-4.3,12.15-9.909,0-5.819-5.065-8.146-9.515-9.4l-3.7-1.061c-3.405-.958-6.982-2.687-6.982-6.383,0-3.765,3.372-6.52,8.266-6.52C1091.528,51.349,1094.849,53.831,1095.242,57.733Z" transform="translate(-883.341 -48.474)" fill="#fff"/>
</svg>
